<svg id="Layer_1" data-name="Layer 1" xmlns="http://www.w3.org/2000/svg" xmlns:xlink="http://www.w3.org/1999/xlink" viewBox="0 0 189.34 61.85"><defs><style>.cls-1,.cls-4{fill:none;}.cls-2{fill:url(#radial-gradient);}.cls-3{clip-path:url(#clip-path);}.cls-4{stroke:#9bd3dd;stroke-miterlimit:10;stroke-width:0.75px;}.cls-5{fill:#fff;}.cls-6{fill:#3c3c3b;}</style><radialGradient id="radial-gradient" cx="193.37" cy="96.7" r="30.92" gradientTransform="translate(-22.53 -87.4) rotate(6.61)" gradientUnits="userSpaceOnUse"><stop offset="0" stop-color="#4e96f6"/><stop offset="0.5" stop-color="#1f9acc"/><stop offset="0.62" stop-color="#198cca"/><stop offset="1" stop-color="#0662c3"/></radialGradient><clipPath id="clip-path"><circle class="cls-1" cx="158.41" cy="30.92" r="30.92"/></clipPath></defs><title>Artboard 1logo con nombre</title><circle class="cls-2" cx="158.41" cy="30.92" r="30.92"/><circle class="cls-1" cx="158.41" cy="30.92" r="30.92"/><g class="cls-3"><circle class="cls-4" cx="215.35" cy="65.93" r="72.34"/><circle class="cls-4" cx="207.84" cy="50.75" r="62.81"/><circle class="cls-4" cx="155.34" cy="78.82" r="63.9"/><circle class="cls-4" cx="172.15" cy="59" r="50.69"/><path class="cls-5" d="M145.8,15.81a58.82,58.82,0,0,1,25.87-7.5C162.18,14.4,152.59,24.86,145,47.8c.58-13.91,6.57-24.93,11.7-33.24A39.33,39.33,0,0,0,145.8,15.81Z"/></g><path class="cls-6" d="M7,33.66H5.19v8.23a3.48,3.48,0,0,1-.71,2.4,2.47,2.47,0,0,1-1.88.77,2.39,2.39,0,0,1-1.92-.81A3.57,3.57,0,0,1,0,41.89V22.17a3.34,3.34,0,0,1,.75-2.43A3.34,3.34,0,0,1,3.18,19h8.45a25.21,25.21,0,0,1,3,.15,7.59,7.59,0,0,1,2.24.6,6.48,6.48,0,0,1,3.54,3.65A7.29,7.29,0,0,1,20.87,26a6.45,6.45,0,0,1-1.61,4.58,9.35,9.35,0,0,1-4.91,2.43A9.59,9.59,0,0,1,17,35.21a22.82,22.82,0,0,1,2.25,3,23.5,23.5,0,0,1,1.54,2.92,6,6,0,0,1,.55,1.8A1.8,1.8,0,0,1,21,44a2.33,2.33,0,0,1-.88.79,2.79,2.79,0,0,1-1.29.29,2.57,2.57,0,0,1-1.47-.41,4,4,0,0,1-1-1q-.43-.63-1.17-1.86l-2.08-3.46a18.32,18.32,0,0,0-2-2.9A4.93,4.93,0,0,0,9.3,34,6.29,6.29,0,0,0,7,33.66Zm3-10.77H5.19v7H9.84A12.83,12.83,0,0,0,13,29.61a3.65,3.65,0,0,0,1.95-1.1,3.15,3.15,0,0,0,.67-2.14,3.25,3.25,0,0,0-2-3.1A11.07,11.07,0,0,0,10,22.89Z"/><path class="cls-6" d="M27.87,23.43a2.51,2.51,0,0,1-1.71-.61,2.18,2.18,0,0,1-.71-1.73,2.13,2.13,0,0,1,.73-1.67,2.41,2.41,0,0,1,1.69-.66,2.5,2.5,0,0,1,1.64.6,2.1,2.1,0,0,1,.72,1.73,2.2,2.2,0,0,1-.7,1.72A2.4,2.4,0,0,1,27.87,23.43Zm2.36,4.93V42.15a3.06,3.06,0,0,1-.69,2.17,2.25,2.25,0,0,1-1.73.74,2.13,2.13,0,0,1-1.7-.76,3.14,3.14,0,0,1-.66-2.15V28.5a3.05,3.05,0,0,1,.66-2.13,2.19,2.19,0,0,1,1.7-.72,2.27,2.27,0,0,1,1.73.72A2.75,2.75,0,0,1,30.23,28.36Z"/><path class="cls-6" d="M39.49,28.29v.58a8.4,8.4,0,0,1,2.75-2.44,7.36,7.36,0,0,1,3.44-.78,6.92,6.92,0,0,1,3.37.82,5.26,5.26,0,0,1,2.22,2.33,5.53,5.53,0,0,1,.62,1.89A19.93,19.93,0,0,1,52,33.27v8.88a3.15,3.15,0,0,1-.66,2.17,2.35,2.35,0,0,1-3.44,0,3.14,3.14,0,0,1-.66-2.15V34.2a7.9,7.9,0,0,0-.66-3.61A2.66,2.66,0,0,0,44,29.34a3.84,3.84,0,0,0-2.32.76,4.33,4.33,0,0,0-1.54,2.09,14.67,14.67,0,0,0-.35,4v6a3.14,3.14,0,0,1-.67,2.18,2.29,2.29,0,0,1-1.74.73,2.14,2.14,0,0,1-1.7-.76A3.14,3.14,0,0,1,35,42.15V28.36a3,3,0,0,1,.59-2,2.1,2.1,0,0,1,1.63-.67,2.13,2.13,0,0,1,1.95,1.19A3.2,3.2,0,0,1,39.49,28.29Z"/><path class="cls-6" d="M74.33,29.15V43a14.4,14.4,0,0,1-.51,4.09,6.49,6.49,0,0,1-1.62,2.83,6.77,6.77,0,0,1-2.93,1.66,15.62,15.62,0,0,1-4.5.55,12.92,12.92,0,0,1-4.41-.7,7.5,7.5,0,0,1-3-1.78,3.27,3.27,0,0,1-1-2.24A1.84,1.84,0,0,1,56.92,46a2,2,0,0,1,1.43-.55,2.36,2.36,0,0,1,1.84.93l.79,1a5,5,0,0,0,.91.82,3.54,3.54,0,0,0,1.2.51,7.07,7.07,0,0,0,1.61.16,6.55,6.55,0,0,0,2.87-.51A3,3,0,0,0,69,46.86a6,6,0,0,0,.48-2c.05-.7.08-1.84.1-3.4a7.68,7.68,0,0,1-2.54,2.34,6.92,6.92,0,0,1-3.44.81,7.2,7.2,0,0,1-4.18-1.23A7.71,7.71,0,0,1,56.68,40a12.49,12.49,0,0,1-1-5.09A12.06,12.06,0,0,1,56.3,31,8.19,8.19,0,0,1,58,28.08a7.07,7.07,0,0,1,2.5-1.79,7.87,7.87,0,0,1,3.11-.6,7.57,7.57,0,0,1,3.51.77,8.78,8.78,0,0,1,2.77,2.44v-.64a2.79,2.79,0,0,1,.61-1.93A2,2,0,0,1,72,25.65a1.87,1.87,0,0,1,1.84.9A6,6,0,0,1,74.33,29.15ZM60.5,35.2a6.61,6.61,0,0,0,1.27,4.38,4.13,4.13,0,0,0,3.28,1.49,4.21,4.21,0,0,0,2.24-.64A4.65,4.65,0,0,0,69,38.51a6.78,6.78,0,0,0,.66-3.12,7.22,7.22,0,0,0-1.28-4.55A4.12,4.12,0,0,0,65,29.22a4,4,0,0,0-3.27,1.55A7,7,0,0,0,60.5,35.2Z"/><path class="cls-6" d="M79.42,26.07h.52V23.2c0-.76,0-1.37.06-1.8a2.73,2.73,0,0,1,.34-1.13,2.22,2.22,0,0,1,.81-.8,2.36,2.36,0,0,1,2.81.38A1.93,1.93,0,0,1,84.58,21a9.84,9.84,0,0,1,.13,1.86v3.25h1.75a2.25,2.25,0,0,1,1.55.48,1.56,1.56,0,0,1,.53,1.23,1.38,1.38,0,0,1-.76,1.35,4.85,4.85,0,0,1-2.17.38h-.9v8.78A14.6,14.6,0,0,0,84.79,40a1.87,1.87,0,0,0,.42,1,1.45,1.45,0,0,0,1.11.38,5.93,5.93,0,0,0,1.14-.15,5.86,5.86,0,0,1,1.12-.15,1.44,1.44,0,0,1,1,.46,1.55,1.55,0,0,1,.46,1.15,1.9,1.9,0,0,1-1.26,1.76,8.45,8.45,0,0,1-3.62.62,6.17,6.17,0,0,1-3.39-.76,3.47,3.47,0,0,1-1.51-2.08,14,14,0,0,1-.36-3.54V29.51h-.63A2.3,2.3,0,0,1,77.74,29a1.61,1.61,0,0,1-.54-1.25,1.54,1.54,0,0,1,.57-1.23A2.46,2.46,0,0,1,79.42,26.07Z"/><path class="cls-6" d="M105.15,36.52H95.82a6.39,6.39,0,0,0,.65,2.87,4.4,4.4,0,0,0,4,2.5,6,6,0,0,0,1.57-.2,4.83,4.83,0,0,0,1.37-.63,9.5,9.5,0,0,0,1.22-.92c.38-.32.86-.77,1.45-1.32a1.59,1.59,0,0,1,1-.32,1.71,1.71,0,0,1,1.19.4,1.46,1.46,0,0,1,.46,1.14,3.1,3.1,0,0,1-.51,1.51,6,6,0,0,1-1.53,1.66,8.72,8.72,0,0,1-2.57,1.32,11.06,11.06,0,0,1-3.56.53,9.52,9.52,0,0,1-7.15-2.63,9.75,9.75,0,0,1-2.55-7.11,11.91,11.91,0,0,1,.63-3.93,8.73,8.73,0,0,1,1.83-3.1,8,8,0,0,1,3-2,10.63,10.63,0,0,1,3.91-.69,9.23,9.23,0,0,1,4.8,1.18,7.77,7.77,0,0,1,3,3.05,8,8,0,0,1,1,3.81c0,1.2-.34,2-1,2.33A6.33,6.33,0,0,1,105.15,36.52Zm-9.33-2.7h8.65a5.84,5.84,0,0,0-1.32-3.67,4,4,0,0,0-3-1.21,3.81,3.81,0,0,0-2.92,1.23A6.08,6.08,0,0,0,95.82,33.82Z"/><path class="cls-6" d="M113.1,42.15V21.46a3.25,3.25,0,0,1,.64-2.17,2.17,2.17,0,0,1,1.72-.74,2.26,2.26,0,0,1,1.75.73,3.09,3.09,0,0,1,.67,2.18V42.15a3.09,3.09,0,0,1-.68,2.18,2.26,2.26,0,0,1-1.74.73,2.14,2.14,0,0,1-1.7-.76A3.14,3.14,0,0,1,113.1,42.15Z"/></svg>