<svg xmlns="http://www.w3.org/2000/svg" viewBox="0 0 139.33 86.53"><defs><style>.cls-1,.cls-2{fill:#00a0d8;}.cls-2{font-size:21px;font-family:Montserrat-Light, Montserrat;font-weight:300;}.cls-3{letter-spacing:-0.01em;}.cls-4{letter-spacing:-0.02em;}</style></defs><title>Recurso 2</title><g id="Capa_2" data-name="Capa 2"><g id="OBJECTS"><path class="cls-1" d="M101.75,5.53a.27.27,0,0,0-.27.27V8.61a.27.27,0,1,0,.54,0V5.8A.27.27,0,0,0,101.75,5.53Z"/><path class="cls-1" d="M101.72,13.57a.27.27,0,0,0,.27-.27V11.64a.27.27,0,1,0-.54,0V13.3A.27.27,0,0,0,101.72,13.57Z"/><path class="cls-1" d="M99.12,13.57a.27.27,0,0,0,.27-.27v-1a.27.27,0,1,0-.54,0v1A.27.27,0,0,0,99.12,13.57Z"/><path class="cls-1" d="M96.8,14.37a.27.27,0,0,0,.27-.27v-1a.27.27,0,0,0-.54,0v1A.27.27,0,0,0,96.8,14.37Z"/><path class="cls-1" d="M93.49,18.51h.08a.27.27,0,0,0,.26-.2c.86-2.88,7.65-3.17,7.92-3.18s7,.3,7.91,3.18a.29.29,0,0,0,.27.2H110a.28.28,0,0,0,.19-.34c-1-3.3-8.13-3.56-8.44-3.57h0c-.3,0-7.44.27-8.43,3.57A.28.28,0,0,0,93.49,18.51Z"/><path class="cls-1" d="M94.37,18.09a.27.27,0,0,0-.27.27v4.69a.27.27,0,0,0,.54,0V18.36A.27.27,0,0,0,94.37,18.09Z"/><path class="cls-1" d="M95.4,17.35a.27.27,0,0,0-.27.27v4.8a.27.27,0,0,0,.54,0v-4.8A.27.27,0,0,0,95.4,17.35Z"/><path class="cls-1" d="M96.72,16.72a.27.27,0,0,0-.27.27v4.92a.27.27,0,1,0,.54,0V17A.27.27,0,0,0,96.72,16.72Z"/><path class="cls-1" d="M98.26,16.32a.27.27,0,0,0-.27.27v4.95a.27.27,0,0,0,.54,0V16.59A.27.27,0,0,0,98.26,16.32Z"/><path class="cls-1" d="M100.06,15.92a.27.27,0,0,0-.27.27v4.95a.27.27,0,0,0,.27.27.28.28,0,0,0,.28-.27V16.19A.28.28,0,0,0,100.06,15.92Z"/><path class="cls-1" d="M101.75,15.92a.27.27,0,0,0-.27.27v4.95a.27.27,0,0,0,.27.27.28.28,0,0,0,.28-.27V16.19A.28.28,0,0,0,101.75,15.92Z"/><path class="cls-1" d="M65.94,32.6h0L88.05,30l.23.52V33l-17,2a.27.27,0,0,0,0,.54h0l16.93-2v1.28L86.93,35h0l-2.12.25h0L71.54,36.77a.27.27,0,0,0,0,.54h0l4.75-.55v7.83a.27.27,0,1,0,.54,0V36.72l1.58-.18v7.77a.27.27,0,1,0,.54,0V36.45l1.56-.18v8.9a.27.27,0,0,0,.54,0v-9L82.7,36v9.13a.27.27,0,1,0,.54,0V36l1.33-.16v9.71a.27.27,0,0,0,.54,0V35.74l1.58-.18V45a.27.27,0,0,0,.54,0V35.49l1-.12v9.57a.27.27,0,1,0,.54,0V32.31h25.85V44.12a.28.28,0,0,0,.28.27.27.27,0,0,0,.27-.27V35.37l1,.12v7a.27.27,0,0,0,.54,0v-7l.24,0,1.34.16v6a.27.27,0,1,0,.54,0V35.8l1.32.16v4.59a.28.28,0,0,0,.28.27.27.27,0,0,0,.27-.27V36l1.57.18V40a.28.28,0,0,0,.28.27.27.27,0,0,0,.27-.27V36.27l1.55.18v3.24a.27.27,0,1,0,.54,0V36.54l1.58.18v3a.27.27,0,0,0,.54,0V36.76l1.35.15v2.73a.27.27,0,1,0,.54,0V37l1.58.18v3a.27.27,0,0,0,.54,0v-3l1.57.18v3.24a.27.27,0,1,0,.54,0V37.48l1.58.19v4a.27.27,0,1,0,.54,0v-4l1.7.2h0a.27.27,0,0,0,0-.54l-18.44-2.14h0L116.57,35h0l-1.35-.16V33.54l22.08,2.54h0a.27.27,0,0,0,0-.54L115.22,33V30.56l.23-.52,22.08,2.55h0a.29.29,0,0,0,.27-.25.28.28,0,0,0-.24-.3l-21.91-2.53.59-1.31a.3.3,0,0,0,0-.26.29.29,0,0,0-.23-.12h-1.83V24.51h.54a.27.27,0,0,0,0-.54h-4.06V20.23a1.74,1.74,0,0,0,.39-1.06,4.41,4.41,0,0,0-2.45-4,12.38,12.38,0,0,0,0-1.37,1,1,0,0,1,.1.25.29.29,0,0,0,.26.19l.09,0a.26.26,0,0,0,.17-.34,5,5,0,0,0-.73-1.28c-.78-5.35-4.4-6.87-5.32-7.17V3.63s0,0,0,0A1.7,1.7,0,0,0,102,2V.27a.28.28,0,0,0-.28-.27h0a.27.27,0,0,0-.27.27V2a1.72,1.72,0,0,0-1.13,1.59V5.45c-.92.3-4.55,1.82-5.32,7.17a5.22,5.22,0,0,0-.74,1.28.28.28,0,0,0,.18.34l.08,0a.28.28,0,0,0,.26-.19l.1-.25c0,.44,0,.89,0,1.37a4.42,4.42,0,0,0-2.44,4,1.67,1.67,0,0,0,.39,1V24H88.76a.27.27,0,1,0,0,.54h.55v3.32H87.48a.29.29,0,0,0-.23.12.27.27,0,0,0,0,.26l.58,1.31-21.9,2.53a.28.28,0,0,0-.24.3A.27.27,0,0,0,65.94,32.6Zm35.81-.83H88.82V30.5a.52.52,0,0,0,0-.11L88.63,30h26.23l-.16.37a.26.26,0,0,0,0,.11v1.27Zm-4-24.06A4.32,4.32,0,0,0,97.1,10a.28.28,0,0,0,.27.28h0a.28.28,0,0,0,.27-.26,3.35,3.35,0,0,1,.79-2.27.27.27,0,0,0,0-.38.27.27,0,0,0-.24-.09,6.64,6.64,0,0,1,1.7-1.09,5.19,5.19,0,0,0-.73,3,.28.28,0,0,0,.27.26h0a.26.26,0,0,0,.26-.28,4.59,4.59,0,0,1,.67-2.72.27.27,0,0,0-.06-.38l-.06,0a3.48,3.48,0,0,1,.39-.12.28.28,0,0,0,.21-.26v-2c.15-1.07.78-1.14.87-1.15s.72.08.86,1.15v2a.27.27,0,0,0,.22.26s.17,0,.39.12l-.06,0a.27.27,0,0,0-.06.38,4.65,4.65,0,0,1,.66,2.72.27.27,0,0,0,.26.28h0a.27.27,0,0,0,.27-.26,5.22,5.22,0,0,0-.72-3,6.61,6.61,0,0,1,1.69,1.09.29.29,0,0,0-.24.09.27.27,0,0,0,0,.38,3.29,3.29,0,0,1,.8,2.27.27.27,0,0,0,.27.26h0a.27.27,0,0,0,.26-.28,4.33,4.33,0,0,0-.67-2.29,8.53,8.53,0,0,1,2.08,4.16,8.19,8.19,0,0,0-6-2,8.19,8.19,0,0,0-6,2A8.45,8.45,0,0,1,97.78,7.71Zm-2.53,7.9a.28.28,0,0,0,.18-.26,15.82,15.82,0,0,1,.11-2.55c.88-1.08,2.69-2.46,6.2-2.38h0c3.51-.08,5.33,1.3,6.2,2.39a15.56,15.56,0,0,1,.12,2.54.26.26,0,0,0,.17.26,3.8,3.8,0,0,1,2.27,3.55,1,1,0,0,1-.21.66.28.28,0,0,0-.17.26V24h-.25c-.47-.36-2.9-2-8-2h-.29c-5.09,0-7.52,1.63-8,2h-.25V20.08a.27.27,0,0,0-.18-.26,1,1,0,0,1-.21-.64A3.82,3.82,0,0,1,95.25,15.61Zm6.5,8.36h-7.1a14.71,14.71,0,0,1,6.95-1.45h.29a14.75,14.75,0,0,1,7,1.45Zm-8.65.54h20.54V25H89.85v-.53Zm-3.25,1.07h23.79v2.25H89.85Zm10.85,2.79h14.9l-.49,1.11H88.39l-.49-1.11Z"/><path class="cls-1" d="M93.09,44.91V32.82a.27.27,0,0,0-.27-.27.28.28,0,0,0-.28.27V44.91a.28.28,0,0,0,.28.27A.27.27,0,0,0,93.09,44.91Z"/><path class="cls-1" d="M96.43,43.82a.27.27,0,0,0,.27-.27V32.82a.27.27,0,0,0-.27-.27H94.8a.27.27,0,0,0-.27.27V44.09a.27.27,0,0,0,.27.27.28.28,0,0,0,.28-.27v-11h1.08V43.55A.27.27,0,0,0,96.43,43.82Z"/><path class="cls-1" d="M99.52,43.28a.28.28,0,0,0,.27-.28V32.82a.27.27,0,0,0-.27-.27H97.89a.27.27,0,0,0-.27.27V43.55a.27.27,0,0,0,.27.27.28.28,0,0,0,.28-.27V33.09h1.07V43A.29.29,0,0,0,99.52,43.28Z"/><path class="cls-1" d="M104.38,13.57a.27.27,0,0,0,.27-.27v-1a.28.28,0,0,0-.27-.28.29.29,0,0,0-.28.28v1A.28.28,0,0,0,104.38,13.57Z"/><path class="cls-1" d="M106.69,14.37a.27.27,0,0,0,.27-.27v-1a.27.27,0,1,0-.54,0v1A.27.27,0,0,0,106.69,14.37Z"/><path class="cls-1" d="M109.12,18.09a.27.27,0,0,0-.27.27v4.69a.27.27,0,0,0,.27.27.28.28,0,0,0,.28-.27V18.36A.28.28,0,0,0,109.12,18.09Z"/><path class="cls-1" d="M108.09,17.35a.27.27,0,0,0-.27.27v4.8a.27.27,0,0,0,.27.27.28.28,0,0,0,.28-.27v-4.8A.28.28,0,0,0,108.09,17.35Z"/><text/><path class="cls-1" d="M105.23,16.32a.27.27,0,0,0-.27.27v4.95a.27.27,0,0,0,.27.27.28.28,0,0,0,.28-.27V16.59A.28.28,0,0,0,105.23,16.32Z"/><path class="cls-1" d="M103.43,15.92a.27.27,0,0,0-.27.27v4.95a.27.27,0,0,0,.54,0V16.19A.27.27,0,0,0,103.43,15.92Z"/><path class="cls-1" d="M111,44.36V32.82a.27.27,0,0,0-.54,0V44.36a.27.27,0,0,0,.54,0Z"/><path class="cls-1" d="M108.69,43.55a.27.27,0,0,0,.27-.27V32.82a.27.27,0,0,0-.27-.27h-1.62a.27.27,0,0,0-.27.27v9.37a.27.27,0,1,0,.54,0v-9.1h1.08V43.28A.27.27,0,0,0,108.69,43.55Z"/><path class="cls-1" d="M105.6,42.46a.27.27,0,0,0,.27-.27V32.82a.27.27,0,0,0-.27-.27H104a.27.27,0,0,0-.27.27v9.37a.27.27,0,0,0,.54,0v-9.1h1.08v9.1A.27.27,0,0,0,105.6,42.46Z"/><path class="cls-1" d="M102.56,42.46h0a.27.27,0,0,0,.27-.27V32.82a.27.27,0,0,0-.27-.27h-1.63a.27.27,0,0,0-.27.27v9.91a.27.27,0,0,0,.54,0v-.5a.08.08,0,0,0,0,0v-9.1h1.07v9.1A.28.28,0,0,0,102.56,42.46Z"/><path class="cls-1" d="M27,26.93a.23.23,0,0,0,.14,0L31,24.71l-.56,1.37a.26.26,0,0,0,.07.31.27.27,0,0,0,.3,0l3.42-1.8-.44,1.48a.28.28,0,0,0,.34.34L38.7,25l-1.22,1.48a.29.29,0,0,0,0,.36.26.26,0,0,0,.35,0,9.45,9.45,0,0,1,7.59-.71c-1.92.74-7,3.28-5.73,9a.26.26,0,0,0,.26.21h0a.27.27,0,0,0,.26-.2l.81-3,.24.59a.27.27,0,0,0,.52,0l.55-2.06.43.66a.28.28,0,0,0,.35.09.26.26,0,0,0,.13-.33s-.66-2.07,3-4.6c1,.5,7.75,4.08,7.26,11.9a.28.28,0,0,0,.25.29h0a.28.28,0,0,0,.27-.26C54.53,30.72,48.3,27,46.7,26.12l.26-.24c1.94.28,7.26,1.69,11,8.77a.27.27,0,0,0,.24.14l.13,0a.27.27,0,0,0,.11-.36c-3.57-6.77-8.58-8.52-10.92-9,5.43-4.28,9.78-1.86,10-1.75a.27.27,0,0,0,.31-.44l-1.13-.95,3.33.54a.28.28,0,0,0,.28-.14.27.27,0,0,0,0-.31l-1-1.15,4.47.57a.28.28,0,0,0,.28-.15.27.27,0,0,0,0-.31,7.87,7.87,0,0,0-6.19-2.67c-4.52.19-8.76,4-10.71,6.1,1.91-3.85,4.59-4.35,4.62-4.35a.28.28,0,0,0,.23-.27.27.27,0,0,0-.22-.27l-1.2-.21,3.29-1.36a.3.3,0,0,0,.17-.25.26.26,0,0,0-.16-.25l-1.38-.64L56.54,16a.27.27,0,0,0,0-.51l-2.13-.84L59.2,11a.27.27,0,0,0-.15-.49c-4.95-.23-8.78,2.42-11.1,7.66a26.28,26.28,0,0,0-1.83,6.55,8.63,8.63,0,0,1,1.25-6.88.31.31,0,0,0,0-.28.29.29,0,0,0-.23-.17l-1-.1,2.18-2.82a.28.28,0,0,0,0-.28A.26.26,0,0,0,48.1,14l-2-.06,2.19-3.11a.29.29,0,0,0,0-.27.27.27,0,0,0-.22-.16l-2-.19,2.23-3.45a.27.27,0,0,0,0-.3.26.26,0,0,0-.27-.12,5.45,5.45,0,0,0-4.23,2.79c-1.74,3.17-.8,8.28.33,12.1-2-3.55-5.17-7.92-9.09-9a7.3,7.3,0,0,0-6.69,1.78.27.27,0,0,0,.19.48l4.27-.26-.94.8a.28.28,0,0,0,.15.48l3.63.32-.7.42a.26.26,0,0,0-.12.27.27.27,0,0,0,.19.22l3.73,1.06-1.5.66a.28.28,0,0,0-.16.29.29.29,0,0,0,.25.23s4.11.41,7.94,6.18c-2.46-1.58-8.66-5.07-13.54-3.66a7.72,7.72,0,0,0-5,5,.3.3,0,0,0,.07.31A.34.34,0,0,0,27,26.93Zm15.71,3.3-.23-.36a.27.27,0,0,0-.27-.12A.26.26,0,0,0,42,30l-.5,1.88-.24-.59a.27.27,0,0,0-.51,0l-.67,2.45C39.88,30,42.69,28,44.6,27.11A5.41,5.41,0,0,0,42.69,30.23Zm15.15-11h.32A7.17,7.17,0,0,1,63,21.15l-4.35-.55a.27.27,0,0,0-.24.44l.94,1.13L55.8,21.6a.27.27,0,0,0-.29.15.28.28,0,0,0,.07.32l.7.59a9.89,9.89,0,0,0-7.52,1.26C50.93,21.91,54.34,19.36,57.84,19.21ZM58.25,11l-4.53,3.44a.27.27,0,0,0-.11.25.28.28,0,0,0,.17.22l1.84.72-4,1.19a.26.26,0,0,0-.19.24.25.25,0,0,0,.16.26l1.47.68-3.57,1.48a.27.27,0,0,0-.17.28.27.27,0,0,0,.22.24l1.09.19a8.64,8.64,0,0,0-3.88,4.06C47.43,20.25,49.92,11.2,58.25,11Zm-14-1.62A4.77,4.77,0,0,1,47.52,7l-2.13,3.29a.26.26,0,0,0,0,.27.27.27,0,0,0,.22.15l2,.19-2.21,3.14a.26.26,0,0,0,0,.27.28.28,0,0,0,.24.15l1.94.07L45.4,17.34a.29.29,0,0,0,0,.27.27.27,0,0,0,.23.17l1.07.11a9,9,0,0,0-1.28,5.37C44.08,19.54,42.32,13,44.3,9.42Zm-6,9.27,1.41-.62a.26.26,0,0,0,.16-.27.27.27,0,0,0-.19-.24l-3.86-1.09.87-.53a.28.28,0,0,0,.13-.29.29.29,0,0,0-.24-.21l-3.81-.34,1.07-.9a.28.28,0,0,0,.07-.31.26.26,0,0,0-.27-.17L29.43,14a6.47,6.47,0,0,1,5.49-1.13c4.4,1.16,7.93,7,9.74,10.57A12.94,12.94,0,0,0,38.27,18.69ZM31.91,22.1a8.18,8.18,0,0,1,2.27-.3c3.77,0,7.92,2.14,10.18,3.51a9.77,9.77,0,0,0-5.65.54l1-1.21a.27.27,0,0,0,0-.33.27.27,0,0,0-.31-.1l-5,1.56.48-1.6a.28.28,0,0,0-.09-.29.27.27,0,0,0-.3,0L31.19,25.6l.58-1.41a.28.28,0,0,0-.07-.3.29.29,0,0,0-.32,0L27.56,26A6.94,6.94,0,0,1,31.91,22.1Z"/><path class="cls-1" d="M5.34,12.72,23.1,20.57l.11,0a.26.26,0,0,0,.24-.16.27.27,0,0,0-.13-.36L5.55,12.22a.26.26,0,0,0-.35.14A.27.27,0,0,0,5.34,12.72Z"/><path class="cls-1" d="M2.33,22.51l32.55,8.4H35a.27.27,0,0,0,.06-.53L2.46,22a.27.27,0,0,0-.33.19A.27.27,0,0,0,2.33,22.51Z"/><path class="cls-1" d="M2.32,30.91l28,3.39h0a.27.27,0,0,0,.27-.24.26.26,0,0,0-.24-.3l-28-3.39a.28.28,0,0,0-.3.24A.27.27,0,0,0,2.32,30.91Z"/><path class="cls-1" d="M7,18.27a.28.28,0,0,0,.17.35l17.75,6,.08,0a.27.27,0,0,0,.09-.53l-17.74-6A.28.28,0,0,0,7,18.27Z"/><path class="cls-1" d="M5.6,26.4a.27.27,0,0,0-.19.51c1.06.38,18.8,4,19.56,4.12H25a.28.28,0,0,0,.27-.22.27.27,0,0,0-.21-.32C18.7,29.21,6.41,26.69,5.6,26.4Z"/><path class="cls-1" d="M132.15,77.43a3.88,3.88,0,0,1-2.65-1,4.6,4.6,0,0,0-5.91.05,4.06,4.06,0,0,1-5.29,0,4.57,4.57,0,0,0-5.9,0,4.06,4.06,0,0,1-5.29,0,4.37,4.37,0,0,0-3-1.06,4.44,4.44,0,0,0-2.94,1.1,4.06,4.06,0,0,1-5.29,0,4.55,4.55,0,0,0-5.9.05,3.9,3.9,0,0,1-2.63,1,4,4,0,0,1-2.66-1,4.57,4.57,0,0,0-5.9,0,4,4,0,0,1-5.28,0,4.57,4.57,0,0,0-5.9,0,3.93,3.93,0,0,1-2.64,1,3.88,3.88,0,0,1-2.65-1,4.57,4.57,0,0,0-5.9,0,4.06,4.06,0,0,1-5.29,0,4.55,4.55,0,0,0-5.9,0,4.06,4.06,0,0,1-5.29,0,4.57,4.57,0,0,0-5.9,0,4.06,4.06,0,0,1-5.29,0,4.37,4.37,0,0,0-3-1.06,4.44,4.44,0,0,0-2.94,1.1,4.06,4.06,0,0,1-5.29,0,4.55,4.55,0,0,0-5.9,0,4,4,0,0,1-5.29,0,4.36,4.36,0,0,0-2.95-1.05.25.25,0,0,0-.26.26.26.26,0,0,0,.26.25,3.92,3.92,0,0,1,2.65,1,4.59,4.59,0,0,0,2.3,1q.3,0,.66,0A4.39,4.39,0,0,0,12,77.75a4.06,4.06,0,0,1,5.29,0,4.37,4.37,0,0,0,3,1.06,4.44,4.44,0,0,0,2.94-1.1,3.91,3.91,0,0,1,2.64-1,3.87,3.87,0,0,1,2.65,1,4.55,4.55,0,0,0,5.9,0,4.06,4.06,0,0,1,5.29,0,4.57,4.57,0,0,0,5.9,0,4,4,0,0,1,5.28,0,4.58,4.58,0,0,0,5.91,0,4,4,0,0,1,5.28,0,4.46,4.46,0,0,0,3,1.06A4.35,4.35,0,0,0,68,77.33a4,4,0,0,1,2.64-1,3.88,3.88,0,0,1,2.65,1,4.55,4.55,0,0,0,5.9,0,4.06,4.06,0,0,1,5.29,0,4.57,4.57,0,0,0,5.9,0,4.06,4.06,0,0,1,5.29,0,4.57,4.57,0,0,0,5.9,0,4.06,4.06,0,0,1,5.29,0,4.46,4.46,0,0,0,3,1.06A4.39,4.39,0,0,0,112.71,77,4.06,4.06,0,0,1,118,77a4.57,4.57,0,0,0,5.9,0,4.06,4.06,0,0,1,5.29,0,4.58,4.58,0,0,0,5.91,0,3.9,3.9,0,0,1,2.63-1,.26.26,0,0,0,.26-.26.26.26,0,0,0-.26-.26,4.37,4.37,0,0,0-2.94,1.11A3.93,3.93,0,0,1,132.15,77.43Z"/><path class="cls-1" d="M137.42,77.88a4.44,4.44,0,0,0-2.94,1.1,4.06,4.06,0,0,1-5.29,0,4.55,4.55,0,0,0-5.9,0,3.93,3.93,0,0,1-2.64,1,3.88,3.88,0,0,1-2.65-1,4.41,4.41,0,0,0-3-1.06,4.34,4.34,0,0,0-2.94,1.1,4,4,0,0,1-2.64,1,3.88,3.88,0,0,1-2.65-1,4.58,4.58,0,0,0-5.91,0,4,4,0,0,1-5.28,0,4.46,4.46,0,0,0-3-1.06,4.35,4.35,0,0,0-2.94,1.11,4,4,0,0,1-2.64,1,3.9,3.9,0,0,1-2.65-1,4.59,4.59,0,0,0-5.9.05,4.06,4.06,0,0,1-5.29,0,4.57,4.57,0,0,0-5.9,0,4.06,4.06,0,0,1-5.29,0,4.57,4.57,0,0,0-5.9,0,4.06,4.06,0,0,1-5.29,0,4.46,4.46,0,0,0-3-1.06A4.39,4.39,0,0,0,45,79.65a3.91,3.91,0,0,1-2.64,1,4,4,0,0,1-2.65-1,4.32,4.32,0,0,0-3-1.06,4.39,4.39,0,0,0-2.94,1.1,4.06,4.06,0,0,1-5.29,0,4.57,4.57,0,0,0-5.9,0,4.06,4.06,0,0,1-5.29,0,4.36,4.36,0,0,0-2.95-1.06,4.44,4.44,0,0,0-2.95,1.1,3.9,3.9,0,0,1-2.63,1,3.88,3.88,0,0,1-2.65-1,4.46,4.46,0,0,0-3-1.06.27.27,0,0,0-.26.26.26.26,0,0,0,.26.26,3.9,3.9,0,0,1,2.65,1,4.5,4.5,0,0,0,3,1.06,4.41,4.41,0,0,0,2.94-1.1,4.06,4.06,0,0,1,5.29,0,4.46,4.46,0,0,0,3,1.06,4.39,4.39,0,0,0,2.94-1.11,4,4,0,0,1,5.29,0,4.59,4.59,0,0,0,5.9,0,4.06,4.06,0,0,1,5.29,0,4.57,4.57,0,0,0,5.9,0,4.06,4.06,0,0,1,5.29,0,4.37,4.37,0,0,0,3,1.06A4.44,4.44,0,0,0,56.46,80a4.06,4.06,0,0,1,5.29,0,4.55,4.55,0,0,0,5.9,0,3.9,3.9,0,0,1,2.63-1,4,4,0,0,1,2.66,1,4.57,4.57,0,0,0,5.9,0,4,4,0,0,1,5.28,0,4.57,4.57,0,0,0,5.9,0,4,4,0,0,1,2.64-1,3.88,3.88,0,0,1,2.65,1,4.57,4.57,0,0,0,5.9,0,3.93,3.93,0,0,1,2.64-1,3.85,3.85,0,0,1,2.65,1,4.55,4.55,0,0,0,5.9,0,3.93,3.93,0,0,1,2.64-1,3.88,3.88,0,0,1,2.65,1,4.58,4.58,0,0,0,5.91,0,4.06,4.06,0,0,1,5.29,0,4.36,4.36,0,0,0,3,1.06,4.44,4.44,0,0,0,2.95-1.1,3.91,3.91,0,0,1,2.64-1,.26.26,0,0,0,.25-.26A.26.26,0,0,0,137.42,77.88Z"/><path class="cls-1" d="M137.11,80.44a4.44,4.44,0,0,0-2.94,1.1,4.06,4.06,0,0,1-5.29,0,4.44,4.44,0,0,0-3-1.06A4.39,4.39,0,0,0,123,81.63a4.06,4.06,0,0,1-5.29,0,4.57,4.57,0,0,0-5.9,0,4.06,4.06,0,0,1-5.29,0,4.57,4.57,0,0,0-5.9,0,4.06,4.06,0,0,1-5.29,0,4.57,4.57,0,0,0-5.9,0,3.93,3.93,0,0,1-2.64,1,3.87,3.87,0,0,1-2.65-1,4.46,4.46,0,0,0-3-1.06A4.39,4.39,0,0,0,78.22,82a4.06,4.06,0,0,1-5.29,0A4.57,4.57,0,0,0,67,82a4.06,4.06,0,0,1-5.29,0,4.37,4.37,0,0,0-3-1.06,4.44,4.44,0,0,0-2.94,1.1,4.06,4.06,0,0,1-5.29,0,4.57,4.57,0,0,0-5.9,0,4,4,0,0,1-5.29,0,4.55,4.55,0,0,0-5.9.05,4.06,4.06,0,0,1-5.29,0,4.57,4.57,0,0,0-5.9,0,4,4,0,0,1-5.28,0,4.57,4.57,0,0,0-5.9,0,3.93,3.93,0,0,1-2.64,1,3.92,3.92,0,0,1-2.65-1,4.46,4.46,0,0,0-3-1.06.26.26,0,0,0-.26.26.27.27,0,0,0,.26.26,3.93,3.93,0,0,1,2.66,1,4.43,4.43,0,0,0,2.29,1,4.68,4.68,0,0,0,.66,0,4.44,4.44,0,0,0,3-1.1,3.9,3.9,0,0,1,2.63-1,3.83,3.83,0,0,1,2.65,1,4.46,4.46,0,0,0,3,1.06,4.35,4.35,0,0,0,2.94-1.11,4.06,4.06,0,0,1,5.29,0,4.57,4.57,0,0,0,5.9,0,4.06,4.06,0,0,1,5.29,0,4.39,4.39,0,0,0,3,1.06A4.44,4.44,0,0,0,45,82.62a4.06,4.06,0,0,1,5.29,0,4.55,4.55,0,0,0,5.9,0,4,4,0,0,1,5.29,0,4.55,4.55,0,0,0,5.9,0,4.06,4.06,0,0,1,5.29,0,4.57,4.57,0,0,0,5.9,0,4.06,4.06,0,0,1,5.29,0,4.36,4.36,0,0,0,3,1.06,4.44,4.44,0,0,0,3-1.1,4.06,4.06,0,0,1,5.29,0,4.55,4.55,0,0,0,5.9,0,4,4,0,0,1,5.28,0,4.6,4.6,0,0,0,5.91,0,4.06,4.06,0,0,1,5.29,0,4.57,4.57,0,0,0,5.9,0,4.06,4.06,0,0,1,5.29,0,4.37,4.37,0,0,0,3,1.06,4.44,4.44,0,0,0,2.94-1.1,3.91,3.91,0,0,1,2.64-1,.26.26,0,0,0,.25-.26A.25.25,0,0,0,137.11,80.44Z"/><path class="cls-1" d="M136.81,83a4.44,4.44,0,0,0-2.95,1.1,4.06,4.06,0,0,1-5.29,0,4.57,4.57,0,0,0-5.9,0,4.06,4.06,0,0,1-5.29,0,4.55,4.55,0,0,0-5.9,0,4.06,4.06,0,0,1-5.29,0,4.57,4.57,0,0,0-5.9,0,4.06,4.06,0,0,1-5.29,0,4.37,4.37,0,0,0-3-1.06,4.44,4.44,0,0,0-2.94,1.1,4.06,4.06,0,0,1-5.29,0,4.55,4.55,0,0,0-5.9,0,4,4,0,0,1-5.29,0,4.59,4.59,0,0,0-5.9,0,4.06,4.06,0,0,1-5.29,0,4.57,4.57,0,0,0-5.9,0,4.06,4.06,0,0,1-5.29,0,4.36,4.36,0,0,0-3-1.06,4.44,4.44,0,0,0-2.95,1.1,4,4,0,0,1-5.28,0,4.46,4.46,0,0,0-3-1.06,4.35,4.35,0,0,0-2.94,1.11,4.06,4.06,0,0,1-5.29,0,4.57,4.57,0,0,0-5.9,0,4.06,4.06,0,0,1-5.29,0,4.57,4.57,0,0,0-5.9,0,3.91,3.91,0,0,1-2.64,1,3.92,3.92,0,0,1-2.65-1,4.37,4.37,0,0,0-3-1.06.26.26,0,0,0,0,.52,3.92,3.92,0,0,1,2.65,1,4.5,4.5,0,0,0,3,1.06,4.39,4.39,0,0,0,2.94-1.11,4,4,0,0,1,5.29,0,4.59,4.59,0,0,0,5.9,0,4,4,0,0,1,5.28,0,4.41,4.41,0,0,0,3,1.06,4.34,4.34,0,0,0,2.94-1.1,4.06,4.06,0,0,1,5.29,0,4.57,4.57,0,0,0,5.9,0,3.93,3.93,0,0,1,2.64-1,3.87,3.87,0,0,1,2.65,1,4.46,4.46,0,0,0,3,1.06,4.39,4.39,0,0,0,2.94-1.11,3.91,3.91,0,0,1,2.64-1,4,4,0,0,1,2.65,1A4.57,4.57,0,0,0,67,85a4.06,4.06,0,0,1,5.29,0,4.57,4.57,0,0,0,5.9,0,4.06,4.06,0,0,1,5.29,0,4.37,4.37,0,0,0,3,1.06,4.44,4.44,0,0,0,2.94-1.1,3.91,3.91,0,0,1,2.64-1,3.87,3.87,0,0,1,2.65,1,4.55,4.55,0,0,0,5.9,0,4.06,4.06,0,0,1,5.29,0,4.57,4.57,0,0,0,5.9,0,4.06,4.06,0,0,1,5.29,0,4.37,4.37,0,0,0,3,1.06A4.44,4.44,0,0,0,123,84.6a4.06,4.06,0,0,1,5.29,0,4.44,4.44,0,0,0,3,1.06,4.39,4.39,0,0,0,2.94-1.11,4,4,0,0,1,2.64-1,.26.26,0,0,0,.26-.26A.26.26,0,0,0,136.81,83Z"/><text class="cls-2" transform="translate(0 65.63)">BIE<tspan class="cls-3" x="36.04" y="0">N</tspan><tspan class="cls-4" x="52.94" y="0">V</tspan><tspan x="67.05" y="0">ENIDO</tspan></text></g></g></svg>