<?xml version="1.0" encoding="utf-8"?>
<!-- Generator: Adobe Illustrator 16.0.0, SVG Export Plug-In . SVG Version: 6.00 Build 0)  -->
<!DOCTYPE svg PUBLIC "-//W3C//DTD SVG 1.1//EN" "http://www.w3.org/Graphics/SVG/1.1/DTD/svg11.dtd">
<svg version="1.1" id="Layer_1" xmlns="http://www.w3.org/2000/svg" xmlns:xlink="http://www.w3.org/1999/xlink" x="0px" y="0px"
	 width="434.542px" height="91.478px" viewBox="0 0 434.542 91.478" enable-background="new 0 0 434.542 91.478"
	 xml:space="preserve">
<path fill-rule="evenodd" clip-rule="evenodd" fill="#E31837" d="M412.957,88.765c-2.136-0.231-4.283-0.37-6.43-0.452
	c-2.138-0.067-3.435-0.1-3.882-0.104c-2.769,0.027-6.113,0.223-10.045,0.637c3.967-11.846,7.947-26.102,11.931-42.784
	c3.998-16.679,7.205-32.011,9.648-45.989c4.287,0.382,8.115,0.567,11.519,0.562c2.682-0.017,5.628-0.224,8.844-0.634l-12.666,46.826
	l-4.064,18.24c-1.231,5.076-2.229,9.49-3.021,13.218C414,82.023,413.393,85.518,412.957,88.765L412.957,88.765z M371.151,36.53
	c-3.826,0.011-6.939,1.676-9.342,4.985c-2.399,3.295-4.337,8.564-5.826,15.796l13.937,0.18l8.169-0.271
	c0.437-1.582,0.786-3.492,1.045-5.715c0.268-2.223,0.381-4.37,0.37-6.423C379.476,39.365,376.699,36.517,371.151,36.53
	L371.151,36.53z M384.389,88.277c0.435-0.717,1.12-1.775,1.998-3.165c0.882-1.396,1.595-2.45,2.131-3.163l-1.889-1.064
	c-4.185,2.55-8.458,3.839-12.846,3.859c-5.621,0.011-10.133-1.512-13.543-4.597c-3.407-3.093-5.12-7.129-5.136-12.122
	c-0.021-1.2,0.158-2.864,0.503-5.011l22.906-0.305l16.474,0.167c0.521-3.254,0.824-5.356,0.911-6.312
	c0.089-0.944,0.127-2.308,0.122-4.047c-0.033-6.67-2.385-11.897-7.044-15.688c-4.663-3.792-11.053-5.688-19.173-5.646
	c-9.92,0.026-17.984,2.991-24.207,8.89c-6.225,5.892-9.318,13.451-9.278,22.655c0.038,8.565,3.063,15.347,9.069,20.325
	c6.002,4.975,14.089,7.447,24.277,7.412C374.392,90.448,379.309,89.718,384.389,88.277L384.389,88.277z M318.881,36.598
	c-6.969,0.022-12.437,3.314-16.43,9.879c-3.982,6.564-5.969,13.295-5.944,20.199c0.018,5.002,1.525,9.038,4.475,12.136
	c2.964,3.075,6.904,4.608,11.806,4.594c2.772-0.011,5.178-0.376,7.233-1.1c2.047-0.722,4.454-2.076,7.214-4.071l1.884,1.308
	c-2.04,3.173-3.454,5.964-4.242,8.343c-5.459,1.842-10.483,2.772-15.131,2.795c-9.379,0.031-17.066-2.267-23.068-6.886
	c-6.005-4.624-9.026-11.06-9.063-19.313c-0.038-9.445,3.595-17.316,10.88-23.608c7.3-6.306,16.563-9.461,27.814-9.504
	c4.913-0.02,9.16,0.405,12.738,1.27c3.575,0.861,7.864,2.547,12.88,5.071c-2.129,2.87-4.437,7.034-6.906,12.523l-2.817,0.009
	c-0.024-3.805-1.202-7.037-3.517-9.686C326.339,37.902,323.082,36.58,318.881,36.598L318.881,36.598z M239.619,82.945
	c4.545-0.013,7.449-1.806,8.679-5.387c1.236-3.582,2.686-9.652,4.332-18.225c-7.577,1.136-12.866,2.59-15.847,4.398
	c-2.979,1.804-4.454,5.71-4.436,11.741C232.369,80.471,234.792,82.961,239.619,82.945L239.619,82.945z M262.134,90.371
	c-6.51,0.016-10.715-2.857-12.616-8.648c-3.897,6.133-9.697,9.2-17.365,9.231c-5.449,0.011-9.788-1.361-13.018-4.125
	c-3.216-2.764-4.846-6.495-4.861-11.178c-0.027-5.313,1.915-9.603,5.819-12.877c3.929-3.26,8.712-5.209,14.387-5.817
	c5.666-0.619,10.459-1.131,14.392-1.537c3.655-1.047,5.475-3.398,5.454-7.055c-0.024-6.108-4.055-9.149-12.095-9.12
	c-4.633,0.021-9.054,1.534-13.229,4.574l-0.677-0.002l0.635-6.786c7.129-3.593,14.531-5.407,22.215-5.434
	c14.111-0.052,21.193,4.543,21.233,13.792c0.005,2.705-0.343,5.489-1.04,8.339l-4.087,16.422c-1.06,3.795-1.572,6.749-1.567,8.909
	c0.014,3.087,1.229,4.624,3.646,4.619c0.445,0,1.16,0.27,2.147,0.828l1.075,2.606C269.201,89.272,265.727,90.355,262.134,90.371
	L262.134,90.371z M183.122,39.333c-5.715,0.029-10.191,4.179-13.405,12.488c-3.229,8.305-4.829,15.833-4.784,22.581
	c0.003,3.41,0.983,6.126,2.907,8.133c1.931,2.024,4.458,3.031,7.581,3.016c5.974-0.021,10.64-4.163,13.95-12.43
	c3.304-8.263,4.946-15.133,4.938-20.614c-0.027-4.12-1.032-7.359-3.006-9.685C189.332,40.482,186.603,39.312,183.122,39.333
	L183.122,39.333z M146.316,76.965l3.944-16.207l4.615-20.136l4.581-21.448c0.695-3.576,1.355-6.884,1.961-9.938
	c0.619-3.073,0.922-5.867,0.907-8.407c1.883,0.244,3.308,0.39,4.288,0.475c0.987,0.065,2.499,0.112,4.538,0.098
	c3.146-0.014,6.667-0.224,10.593-0.63l-9.606,38.006c4.625-4.621,10.603-6.94,17.925-6.97c6.871-0.022,12.391,2.005,16.556,6.079
	c4.179,4.066,6.274,9.592,6.301,16.579c0.05,9.131-3.091,17.517-9.396,25.155c-6.307,7.644-14.453,11.477-24.456,11.508
	c-8.849,0.033-15.375-3.069-19.6-9.325c-4.457,2.156-9.217,4.94-14.29,8.385l-2.552,0.011L146.316,76.965L146.316,76.965z
	 M97.358,76.184c-0.005-2.303,0.803-6.521,2.423-12.692c1.629-6.147,3.478-12.173,5.59-18.053l4.08-12.036
	c-3.3,0.41-7.145,0.62-11.517,0.629c-1.881,0.011-3.307-0.02-4.292-0.1c-0.975-0.07-2.404-0.233-4.289-0.456
	c-0.346,2.531-1.605,8.336-3.781,17.393c-2.17,9.053-3.686,15.465-4.515,19.238c-0.834,3.775-1.246,6.775-1.234,9.002
	c0.028,3.719,1.512,6.717,4.467,8.962c2.928,2.261,6.837,3.374,11.707,3.356c9.136-0.027,16.885-3.749,23.281-11.151l-2.156,9.532
	c1.528-0.169,2.908-0.308,4.159-0.437c1.249-0.118,2.896-0.187,4.959-0.194c3.125-0.011,6.069,0.171,8.841,0.566
	c1.308-6.356,2.734-13.187,4.253-20.494c1.544-7.303,2.942-13.587,4.211-18.826c1.261-5.235,2.923-10.959,4.949-17.158
	c-3.481,0.411-6.747,0.624-9.766,0.624c-3.318,0.02-6.264-0.171-8.856-0.556c-1.286,7.694-2.59,14.353-3.903,19.954
	c-1.323,5.603-2.884,10.703-4.667,15.307c-1.811,4.615-4.159,8.091-7.032,10.447c-2.89,2.356-5.97,3.535-9.266,3.537
	c-2.305,0.016-4.165-0.557-5.546-1.697C98.069,79.727,97.363,78.173,97.358,76.184L97.358,76.184z M79.705,25.886
	c-5.391-7.519-13.131-11.263-23.223-11.227c-12.054,0.043-21.102,4.632-27.133,13.788c-6.023,9.144-9.023,19.508-8.963,31.098
	c0.029,7.86,2.358,13.978,6.97,18.374c4.619,4.392,11.041,6.561,19.25,6.539c9.914-0.04,17.681-2.361,23.267-6.989l1.223,0.829
	c-0.789,1.515-1.659,3.165-2.59,4.953c-0.933,1.786-1.656,3.398-2.19,4.822c-7.49,2.249-14.318,3.383-20.481,3.405
	c-14.012,0.053-25.152-3.241-33.398-9.895C4.193,74.959,0.048,65.888,0,54.378c-0.063-13.013,5.095-23.971,15.455-32.855
	C25.825,12.641,38.585,8.18,53.768,8.122c11.792-0.044,22.879,2.347,33.262,7.144l-6.125,10.622L79.705,25.886z"/>
</svg>
