<?xml version="1.0" encoding="iso-8859-1"?>
<!-- Generator: Adobe Illustrator 19.0.0, SVG Export Plug-In . SVG Version: 6.00 Build 0)  -->
<svg version="1.1" id="Layer_1" xmlns="http://www.w3.org/2000/svg" xmlns:xlink="http://www.w3.org/1999/xlink" x="0px" y="0px"
	 viewBox="0 0 512 512" style="enable-background:new 0 0 512 512;" xml:space="preserve">
<g>
	<g>
		<path d="M361.392,0H150.608c-27.686,0-50.216,22.564-50.216,50.294v411.412c0,27.731,22.529,50.294,50.216,50.294h210.784
			c27.686,0,50.216-22.564,50.216-50.294V50.294C411.608,22.564,389.078,0,361.392,0z M391.529,461.706
			c0,16.662-13.52,30.216-30.137,30.216H150.608c-16.618,0-30.137-13.554-30.137-30.216V50.294c0-16.662,13.52-30.216,30.137-30.216
			h210.784c16.618,0,30.137,13.554,30.137,30.216V461.706z"/>
	</g>
</g>
<g>
	<g>
		<rect x="240.941" y="40.157" width="60.235" height="20.078"/>
	</g>
</g>
<g>
	<g>
		<rect x="190.745" y="40.157" width="30.118" height="20.078"/>
	</g>
</g>
<g>
	<g>
		<path d="M256,411.608c-19.372,0-35.137,15.765-35.137,35.137c0,19.372,15.765,35.137,35.137,35.137
			c19.373,0,35.137-15.765,35.137-35.137C291.137,427.372,275.373,411.608,256,411.608z M256,461.804
			c-8.304,0-15.059-6.755-15.059-15.059c0-8.304,6.755-15.059,15.059-15.059s15.059,6.755,15.059,15.059
			C271.059,455.049,264.304,461.804,256,461.804z"/>
	</g>
</g>
<g>
</g>
<g>
</g>
<g>
</g>
<g>
</g>
<g>
</g>
<g>
</g>
<g>
</g>
<g>
</g>
<g>
</g>
<g>
</g>
<g>
</g>
<g>
</g>
<g>
</g>
<g>
</g>
<g>
</g>
</svg>
