<?xml version="1.0" encoding="iso-8859-1"?>
<!-- Generator: Adobe Illustrator 19.0.0, SVG Export Plug-In . SVG Version: 6.00 Build 0)  -->
<svg version="1.1" id="Layer_1" xmlns="http://www.w3.org/2000/svg" xmlns:xlink="http://www.w3.org/1999/xlink" x="0px" y="0px"
	 viewBox="0 0 512 512" style="enable-background:new 0 0 512 512;" xml:space="preserve">
<g>
	<g>
		<path d="M256,0C114.611,0,0,114.611,0,256s114.611,256,256,256s256-114.611,256-256S397.389,0,256,0z M256,486.4
			C128.759,486.4,25.6,383.241,25.6,256S128.759,25.6,256,25.6c127.249,0,230.4,103.159,230.4,230.4S383.249,486.4,256,486.4z"/>
	</g>
</g>
<g>
	<g>
		<path d="M268.8,384V204.8c7.066,0,12.8-5.734,12.8-12.8s-5.734-12.8-12.8-12.8h-25.6c-7.066,0-12.8,5.734-12.8,12.8
			s5.734,12.8,12.8,12.8V384c-7.066,0-12.8,5.734-12.8,12.8c0,7.066,5.734,12.8,12.8,12.8h25.6c7.066,0,12.8-5.734,12.8-12.8
			C281.6,389.734,275.866,384,268.8,384z"/>
	</g>
</g>
<g>
	<g>
		<circle cx="256" cy="128" r="25.6"/>
	</g>
</g>
<g>
</g>
<g>
</g>
<g>
</g>
<g>
</g>
<g>
</g>
<g>
</g>
<g>
</g>
<g>
</g>
<g>
</g>
<g>
</g>
<g>
</g>
<g>
</g>
<g>
</g>
<g>
</g>
<g>
</g>
</svg>
