<svg xmlns="http://www.w3.org/2000/svg" viewBox="0 0 757.18 737.76"><defs><style>.cls-1{fill:#f5f5f5;}.cls-2{fill:#e1e1e1;}.cls-3{fill:#ececec;}.cls-4,.cls-9{fill:#8dd1f7;}.cls-12,.cls-5{fill:#fff;}.cls-6{fill:#2b454e;}.cls-7{fill:#1a2e35;}.cls-8{fill:#375a64;}.cls-9{opacity:0.6;}.cls-12,.cls-13,.cls-14,.cls-15,.cls-17,.cls-9{isolation:isolate;}.cls-10{fill:#f0f0f0;}.cls-11{fill:#00dfbf;}.cls-12{opacity:0.4;}.cls-13,.cls-18{opacity:0.15;}.cls-14{opacity:0.1;}.cls-15{opacity:0.3;}.cls-16{fill:#c76668;}.cls-17{opacity:0.7;}.cls-19{fill:#b0494c;}</style></defs><title>Recurso 1</title><g id="Capa_2" data-name="Capa 2"><g id="Capa_1-2" data-name="Capa 1"><path id="Floor" class="cls-1" d="M110.89,672.32c147.85,87.25,387.57,87.25,535.41,0s147.85-228.72,0-316-387.56-87.25-535.41,0S-37,585.06,110.89,672.32Z"/><ellipse id="Shadows" class="cls-2" cx="607" cy="612.21" rx="72.43" ry="41.82"/><g id="Clouds"><path class="cls-3" d="M561.57,74l12.57,7.25a13.1,13.1,0,0,1-.11-1.66V75.92c0-6.48,4.55-9.11,10.16-5.87a19.6,19.6,0,0,1,6.06,5.83c.92-8.15,7.31-11.19,15.07-6.7,8.4,4.84,15.2,16.63,15.2,26.32V101a14.44,14.44,0,0,1-1.28,6.31l10.44,6a12.49,12.49,0,0,1,5.63,9.76c0,3.6-2.52,5-5.63,3.26L561.57,87a12.43,12.43,0,0,1-5.64-9.76C555.93,73.68,558.46,72.17,561.57,74Z"/><path class="cls-3" d="M507.78,110.59l9.49,5.47a10.36,10.36,0,0,1-.08-1.25v-2.75c0-4.89,3.43-6.87,7.67-4.43a14.87,14.87,0,0,1,4.57,4.4c.69-6.15,5.51-8.44,11.37-5.06,6.34,3.66,11.48,12.56,11.48,19.87V131a10.87,10.87,0,0,1-1,4.77l7.87,4.54a9.42,9.42,0,0,1,4.29,7.42c0,2.71-1.91,3.81-4.26,2.46l-51.4-29.68a9.41,9.41,0,0,1-4.25-7.37C503.53,110.33,505.43,109.23,507.78,110.59Z"/></g><g id="Plants"><path class="cls-4" d="M87,420.59c-.93.5-18.07,5.36-24.42-3s4.19-21.46-1.77-26.27-22.64,0-26.65-10.12,7.88-14.5,1.19-24.71c-4.21-6.43-14.56-10-15.47-16-1.53-9.94,14.94-14.51,29-5.12s22.6,5.08,27.07,4.45,14.11.76,13.8,16.45S87,420.59,87,420.59Z"/><path class="cls-5" d="M88.15,398.27a.92.92,0,0,1-.92-.78c-4.91-29.77-39.52-54-57.51-59.2a.94.94,0,0,1-.74-1.11.93.93,0,0,1,1.11-.73l.15,0c18.4,5.32,53.8,30.15,58.83,60.7a.93.93,0,0,1-.77,1.07h-.15Z"/><path class="cls-5" d="M47.34,373.35a.93.93,0,0,1-.48-1.72h0c.56-.33,13.87-8.12,27-4.48a.93.93,0,1,1-.5,1.8C61,365.52,48,373.15,47.83,373.22A1,1,0,0,1,47.34,373.35Z"/></g><g id="Laptop"><path class="cls-6" d="M93.66,432c0,4.25,3.18,9.52,7.1,11.79l198.85,114.8a15.7,15.7,0,0,0,14.19,0L585.88,401.53c3.92-2.27,7.1-7.54,7.1-11.79s-3.18-9.52-7.1-11.79L387,263.15a15.7,15.7,0,0,0-14.19,0L100.75,420.24C96.84,422.5,93.66,427.77,93.66,432Z"/><path class="cls-7" d="M306.71,545V560.3a14.39,14.39,0,0,1-7.1-1.68L100.75,443.81c-3.91-2.27-7.09-7.54-7.09-11.79,0-4,2.8-8.87,6.37-11.32-3.18,2.27-2.93,5.62.72,7.73L299.61,543.24A14.39,14.39,0,0,0,306.71,545Z"/><path class="cls-8" d="M87,420.49c-3.68-2.12-6.66-7.51-6.66-12V171.15a15.69,15.69,0,0,1,7.1-12.29L359.52,1.77c3.92-2.26,10.08-2.37,13.76-.25s6.65,7.51,6.65,12v237.3a15.68,15.68,0,0,1-7.09,12.29L100.75,420.24C96.84,422.5,90.68,422.61,87,420.49Z"/><path class="cls-7" d="M99.92,420.68c-3.92,1.84-9.49,1.81-12.92-.18-3.67-2.11-6.65-7.5-6.65-12V171.15a14.21,14.21,0,0,1,2.08-7l13.31,7.67h0a14.45,14.45,0,0,0-2.08,7V416.13C93.66,420.34,96.39,422.22,99.92,420.68Z"/><path class="cls-6" d="M93.66,178.84v237.3c0,4.52,3.18,6.36,7.09,4.1L372.84,263.15a15.68,15.68,0,0,0,7.09-12.29V13.56c0-4.53-3.17-6.36-7.09-4.1L100.75,166.55A15.68,15.68,0,0,0,93.66,178.84Z"/><path class="cls-8" d="M100.75,428.43,299.61,543.24a15.7,15.7,0,0,0,14.19,0L585.88,386.15c3.92-2.26,3.92-5.93,0-8.2L387,263.15a15.7,15.7,0,0,0-14.19,0L100.75,420.24C96.84,422.5,96.84,426.17,100.75,428.43Z"/><path class="cls-5" d="M104.57,179.68,366.89,28.31c2.36-1.36,4.26-.26,4.26,2.45V236.18a9.4,9.4,0,0,1-4.26,7.38L104.57,395c-2.35,1.35-4.26.25-4.26-2.46V187.09A9.4,9.4,0,0,1,104.57,179.68Z"/><path class="cls-9" d="M104.57,179.68,366.89,28.31c2.36-1.36,4.26-.26,4.26,2.45V236.18a9.4,9.4,0,0,1-4.26,7.38L104.57,395c-2.35,1.35-4.26.25-4.26-2.46V187.09A9.4,9.4,0,0,1,104.57,179.68Z"/><path class="cls-10" d="M235.17,166.73c7-4,12.65-.76,12.65,7.3s-5.66,17.87-12.65,21.9-12.64.77-12.64-7.3S228.19,170.76,235.17,166.73Z"/><path class="cls-10" d="M260.1,209.86c0-13.25-9.31-19.13-20.78-12.51l-7.17,4.14c-11.48,6.63-20.78,22.74-20.78,36v3.56l48.73-28.11Z"/><path class="cls-10" d="M284.73,216.41c-.46-1.07-1.64-1.34-3-.58l-85.09,49.1a7,7,0,0,0-3.14,5.45v10c0,1.71,1,2.54,2.39,2.15l.22-.07a3.71,3.71,0,0,0,.53-.26l85.09-49.09a7,7,0,0,0,3.15-5.46v-10A4,4,0,0,0,284.73,216.41Z"/><path class="cls-11" d="M204.34,266.17c1.65-1,3-.18,3,1.72a6.61,6.61,0,0,1-3,5.18c-1.65.95-3,.18-3-1.73A6.61,6.61,0,0,1,204.34,266.17Z"/><path class="cls-11" d="M214.25,260.46c1.65-1,3-.18,3,1.72a6.61,6.61,0,0,1-3,5.18c-1.65,1-3,.18-3-1.72A6.59,6.59,0,0,1,214.25,260.46Z"/><path class="cls-11" d="M224.14,254.75c1.65-1,3-.18,3,1.73a6.61,6.61,0,0,1-3,5.17c-1.65,1-3,.18-3-1.72A6.59,6.59,0,0,1,224.14,254.75Z"/><path class="cls-11" d="M234,249c1.65-.95,3-.18,3,1.73a6.61,6.61,0,0,1-3,5.17c-1.65,1-3,.18-3-1.72A6.59,6.59,0,0,1,234,249Z"/><path class="cls-11" d="M243.91,243.33c1.65-1,3-.18,3,1.73a6.64,6.64,0,0,1-3,5.18c-1.65,1-3,.18-3-1.73A6.61,6.61,0,0,1,243.91,243.33Z"/><path class="cls-11" d="M253.8,237.62c1.65-1,3-.18,3,1.73a6.61,6.61,0,0,1-3,5.18c-1.65,1-3,.18-3-1.73A6.61,6.61,0,0,1,253.8,237.62Z"/><path class="cls-11" d="M263.69,231.91c1.65-1,3-.18,3,1.73a6.61,6.61,0,0,1-3,5.18c-1.65,1-3,.18-3-1.73A6.63,6.63,0,0,1,263.69,231.91Z"/><path class="cls-11" d="M273.58,226.21c1.65-1,3-.18,3,1.72a6.61,6.61,0,0,1-3,5.18c-1.66,1-3,.18-3-1.73A6.57,6.57,0,0,1,273.58,226.21Z"/><path class="cls-6" d="M123.84,422.29,376.39,276.48a7.84,7.84,0,0,1,7.09,0l12.92,7.45c2,1.14,2,3,0,4.1L143.81,433.82a7.84,7.84,0,0,1-7.09,0l-12.88-7.44C121.88,425.25,121.88,423.42,123.84,422.29Z"/><path class="cls-7" d="M157.13,441.5,409.68,295.68a7.84,7.84,0,0,1,7.09,0l79.45,45.88c2,1.13,2,3,0,4.09L244,491.27a7.86,7.86,0,0,1-7.1,0l-79.73-45.69C155.17,444.47,155.17,442.68,157.13,441.5Z"/><path class="cls-8" d="M383.51,361.3l7.91-4.57c.34-.19.32-.52,0-.73l-9.15-5.28a1.4,1.4,0,0,0-1.26,0l-7.91,4.56a.4.4,0,0,0,0,.73l9.14,5.28A1.39,1.39,0,0,0,383.51,361.3Zm-15.6-18.14L360,347.72c-.33.19-.31.52.05.73l9.14,5.28a1.4,1.4,0,0,0,1.26,0l7.91-4.56c.34-.2.32-.52,0-.73l-9.14-5.28A1.38,1.38,0,0,0,367.91,343.16Zm-25.57,14.75L329,365.68c-.33.19-.31.52,0,.73l9.14,5.28a1.4,1.4,0,0,0,1.26,0L352.81,364c.34-.2.32-.52,0-.73L343.66,358A1.38,1.38,0,0,0,342.34,357.91Zm14-8.08-7.91,4.56a.4.4,0,0,0,0,.73l9.14,5.28a1.4,1.4,0,0,0,1.26,0l7.91-4.57c.34-.19.32-.52,0-.73l-9.15-5.28A1.38,1.38,0,0,0,356.34,349.83Zm-31,17.91-7.91,4.56c-.33.2-.31.52.05.73l9.14,5.28a1.4,1.4,0,0,0,1.26,0l7.91-4.57c.34-.19.32-.52,0-.73l-9.15-5.28A1.39,1.39,0,0,0,325.34,367.74Zm-11.56,6.67-7.9,4.57c-.34.19-.32.52,0,.72L315,385a1.4,1.4,0,0,0,1.26,0l7.9-4.57c.34-.19.32-.52,0-.73l-9.14-5.27a1.44,1.44,0,0,0-1.28,0Zm36,21.47,7.91-4.57c.33-.19.31-.52,0-.73l-9.14-5.28a1.46,1.46,0,0,0-1.26,0l-7.91,4.56c-.34.2-.32.52,0,.73l9.14,5.28a1.41,1.41,0,0,0,1.22,0Zm-11.56,6.67,7.91-4.57c.34-.19.32-.52,0-.72L337,392a1.4,1.4,0,0,0-1.26,0l-7.91,4.57c-.33.19-.31.52.05.72l9.14,5.28a1.43,1.43,0,0,0,1.18,0Zm-11.55,6.67,7.9-4.56c.34-.2.32-.52,0-.73l-9.23-5.25a1.42,1.42,0,0,0-1.27,0l-7.9,4.57c-.34.19-.32.52,0,.73l9.15,5.28a1.41,1.41,0,0,0,1.31,0Zm-11.56,6.67,7.91-4.56c.33-.19.31-.52,0-.73l-9.14-5.28a1.4,1.4,0,0,0-1.26,0l-7.91,4.56c-.34.19-.32.52,0,.73l9.15,5.28a1.4,1.4,0,0,0,1.26,0ZM372,368l7.9-4.57c.34-.19.32-.52,0-.73l-9.14-5.28a1.46,1.46,0,0,0-1.26,0L361.59,362c-.34.2-.32.52,0,.73l9.15,5.28a1.41,1.41,0,0,0,1.22,0ZM361.34,389.2,379,379c.33-.19.31-.52-.05-.73l-22.2-12.82a1.42,1.42,0,0,0-1.27,0l-9.12,5.21a.4.4,0,0,0,0,.73l11.75,6.79c.36.21.38.53,0,.73l-7.3,4.21c-.34.2-.32.52,0,.73l9.15,5.28A1.38,1.38,0,0,0,361.34,389.2Zm-59.08-8.12-7.92,4.6c-.34.19-.32.52,0,.73l9.14,5.28a1.4,1.4,0,0,0,1.26,0l7.91-4.56c.33-.2.31-.52,0-.73l-9.14-5.28a1.39,1.39,0,0,0-1.24,0Zm-11.56,6.67-7.91,4.57c-.33.19-.31.52,0,.73l9.14,5.28a1.4,1.4,0,0,0,1.26,0l7.91-4.56c.34-.2.32-.52,0-.73L292,387.76a1.4,1.4,0,0,0-1.29,0ZM233,462.58a1.4,1.4,0,0,0,1.26,0l7.91-4.56c.33-.2.31-.53-.05-.73L232.93,452a1.4,1.4,0,0,0-1.26,0l-7.91,4.57c-.33.19-.31.52.05.73Zm-34.7-21.45-7.91,4.55c-.34.19-.32.52,0,.73l9.15,5.28a1.4,1.4,0,0,0,1.26,0l7.91-4.56c.33-.2.31-.52,0-.73l-9.14-5.28a1.4,1.4,0,0,0-1.26,0Zm18.6,15.66a1.4,1.4,0,0,0,1.26,0l7.91-4.57c.33-.19.31-.52-.05-.73l-9.14-5.28a1.4,1.4,0,0,0-1.26,0l-7.91,4.56c-.34.2-.32.52,0,.73Zm36.49,9.89,7.9-4.56a.39.39,0,0,0,0-.73l-9.15-5.28a1.4,1.4,0,0,0-1.26,0l-7.9,4.57c-.34.19-.32.52,0,.73l9.14,5.27A1.42,1.42,0,0,0,253.34,466.68Zm-12.82,6.65a1.4,1.4,0,0,0,1.26,0l7.91-4.56c.33-.2.31-.52-.05-.73l-9.14-5.28a1.4,1.4,0,0,0-1.26,0l-7.91,4.57c-.34.19-.32.52,0,.73Zm-30.74-38.82-7.9,4.57c-.34.19-.32.52,0,.72l9.14,5.28a1.42,1.42,0,0,0,1.27,0l7.9-4.57c.34-.19.32-.52,0-.72L211,434.51a1.41,1.41,0,0,0-1.28-.05Zm57.79-33.36-7.93,4.53c-.34.2-.32.52,0,.73l9.15,5.28a1.4,1.4,0,0,0,1.26,0l7.91-4.57c.33-.19.31-.52,0-.73l-9.14-5.27a1.41,1.41,0,0,0-1.22,0Zm-46.23,26.64-7.91,4.56c-.33.2-.31.52,0,.73l9.14,5.28a1.4,1.4,0,0,0,1.26,0l7.91-4.57c.34-.19.32-.52,0-.73l-9.14-5.28A1.4,1.4,0,0,0,221.34,427.79Zm57.78-33.36-7.9,4.56c-.34.2-.32.52,0,.73l9.14,5.28a1.42,1.42,0,0,0,1.27,0l7.9-4.57c.34-.19.32-.52,0-.73l-9.14-5.28a1.4,1.4,0,0,0-1.29,0ZM256,407.77l-7.91,4.57c-.33.19-.31.52.05.73l9.14,5.27a1.4,1.4,0,0,0,1.26,0l7.91-4.57c.34-.19.32-.52,0-.72l-9.15-5.28a1.4,1.4,0,0,0-1.32,0Zm-11.56,6.67-7.9,4.57c-.34.19-.32.52,0,.73l9.14,5.28a1.42,1.42,0,0,0,1.27,0l7.9-4.56c.34-.2.32-.52,0-.73l-9.14-5.28a1.43,1.43,0,0,0-1.29,0Zm-11.55,6.68L225,425.68c-.34.2-.32.52,0,.73l9.15,5.28a1.4,1.4,0,0,0,1.26,0l7.91-4.57c.33-.19.31-.52-.05-.73l-9.14-5.28a1.39,1.39,0,0,0-1.24,0ZM292,429.24l7.9-4.57c.34-.19.32-.52,0-.72l-9.15-5.28a1.4,1.4,0,0,0-1.26,0l-7.9,4.57c-.34.19-.32.52,0,.72l9.14,5.28a1.44,1.44,0,0,0,1.25,0Zm101.5-100.83L385.57,333c-.34.2-.32.52,0,.73l9.15,5.28a1.34,1.34,0,0,0,1.26,0l7.91-4.56c.33-.2.31-.52-.05-.73l-9.14-5.28a1.36,1.36,0,0,0-1.24,0Zm-14,8.07-7.91,4.57c-.34.19-.32.52,0,.73l9.15,5.28a1.4,1.4,0,0,0,1.26,0l7.91-4.56c.33-.2.31-.52-.05-.73l-9.14-5.28a1.4,1.4,0,0,0-1.23,0ZM405,321.73l-7.9,4.57c-.34.19-.32.52,0,.73l9.14,5.28a1.4,1.4,0,0,0,1.26,0l7.91-4.56c.34-.2.32-.52,0-.73l-9.15-5.28a1.39,1.39,0,0,0-1.27,0ZM345.2,383.42l7.91-4.57c.34-.19.32-.52,0-.72L344,372.85a1.4,1.4,0,0,0-1.26,0l-7.91,4.57c-.33.19-.31.52,0,.72l9.14,5.28a1.42,1.42,0,0,0,1.21,0Zm72.64-68.33a1.4,1.4,0,0,0-1.26,0l-7.91,4.57a.39.39,0,0,0,0,.72l9.14,5.28a1.4,1.4,0,0,0,1.26,0l7.91-4.57c.34-.19.32-.52,0-.72ZM303.51,422.57l7.91-4.57c.34-.19.32-.52-.05-.73L302.23,412a1.4,1.4,0,0,0-1.26,0l-7.91,4.56a.4.4,0,0,0,0,.73l9.14,5.28A1.41,1.41,0,0,0,303.51,422.57Zm141.73-81.83,7.9-4.56c.34-.2.32-.52,0-.73L444,330.17a1.42,1.42,0,0,0-1.27,0l-7.9,4.57c-.34.19-.32.52,0,.73l9.14,5.28A1.42,1.42,0,0,0,445.24,340.74Zm-24.62-.87,7.91-4.56c.33-.2.31-.52,0-.73l-9.14-5.28a1.4,1.4,0,0,0-1.26,0l-7.91,4.57c-.34.19-.32.52,0,.73l9.15,5.28a1.36,1.36,0,0,0,1.3,0Zm10.27-17.19a1.4,1.4,0,0,0-1.26,0l-7.91,4.57c-.33.19-.31.52,0,.73l9.14,5.27a1.4,1.4,0,0,0,1.26,0l7.91-4.56c.34-.2.32-.52,0-.73Zm2.44-1.41,22.2,12.82a1.4,1.4,0,0,0,1.26,0l7.91-4.56a.39.39,0,0,0,0-.73L442.49,316a1.4,1.4,0,0,0-1.26,0l-7.91,4.57c-.37.13-.35.47,0,.67ZM406.52,336l-7.91,4.56c-.33.2-.32.52.05.73l9.14,5.28a1.4,1.4,0,0,0,1.26,0L417,342c.33-.19.31-.52,0-.73L407.83,336a1.41,1.41,0,0,0-1.31,0Zm-87,50.21-7.91,4.57c-.34.19-.32.52,0,.73l9.14,5.28a1.4,1.4,0,0,0,1.26,0l7.91-4.56a.4.4,0,0,0,0-.73l-9.14-5.28a1.42,1.42,0,0,0-1.24-.06ZM432.4,347.44a1.4,1.4,0,0,0,1.26,0l7.91-4.56c.33-.19.31-.52,0-.73l-9.14-5.28a1.4,1.4,0,0,0-1.26,0l-7.91,4.56c-.34.2-.32.52,0,.73Zm-101.33,32.1-7.9,4.57c-.34.19-.32.52,0,.73l9.15,5.28a1.4,1.4,0,0,0,1.26,0l7.9-4.56c.34-.2.32-.52,0-.73l-9.14-5.28a1.44,1.44,0,0,0-1.25-.06ZM244.45,456a1.4,1.4,0,0,0,1.26,0l7.91-4.57c.33-.19.31-.52-.05-.73l-9.14-5.27a1.4,1.4,0,0,0-1.26,0L235.26,450c-.34.19-.32.52,0,.72Zm-17.39-16.36-7.9,4.57c-.34.19-.32.52,0,.73l9.14,5.28a1.4,1.4,0,0,0,1.26,0l7.91-4.56c.34-.2.32-.52,0-.73l-9.15-5.28a1.42,1.42,0,0,0-1.24-.06Zm30.2,9.72,7.91-4.57c.34-.19.32-.52,0-.73L256,438.73a1.4,1.4,0,0,0-1.26,0l-7.91,4.56c-.33.2-.31.52.05.73L256,449.3a1.39,1.39,0,0,0,1.24,0Zm11.56-6.68,7.91-4.56c.34-.2.32-.52-.05-.73l-9.14-5.28a1.4,1.4,0,0,0-1.26,0l-7.91,4.56c-.33.19-.31.52.05.73l9.14,5.28a1.35,1.35,0,0,0,1.28-.05ZM280.38,436l7.91-4.56c.33-.2.31-.52-.05-.73l-9.14-5.28a1.4,1.4,0,0,0-1.26,0L269.93,430c-.34.19-.32.52,0,.73l9.15,5.28a1.4,1.4,0,0,0,1.32-.06Zm-41.76-3-7.91,4.57c-.33.19-.31.52,0,.73l9.14,5.27a1.4,1.4,0,0,0,1.26,0l7.91-4.56c.34-.2.31-.53,0-.73L239.88,433a1.39,1.39,0,0,0-1.24-.09Zm11.56-6.67-7.91,4.56c-.34.2-.32.52,0,.73l9.15,5.28a1.4,1.4,0,0,0,1.26,0l7.91-4.57c.33-.19.31-.52,0-.73l-9.14-5.27a1.41,1.41,0,0,0-1.2-.09ZM296.4,399.6l-7.9,4.57c-.34.19-.32.52,0,.72l9.14,5.28a1.42,1.42,0,0,0,1.27,0l7.9-4.57c.34-.19.32-.52,0-.73l-9.14-5.27a1.41,1.41,0,0,0-1.25-.09Zm-11.55,6.67-7.91,4.57c-.34.19-.32.52,0,.73l9.15,5.28a1.4,1.4,0,0,0,1.26,0l7.91-4.56c.33-.2.31-.52-.05-.73l-9.14-5.28a1.41,1.41,0,0,0-1.2-.1ZM308,392.93l-7.91,4.56a.4.4,0,0,0,0,.73l9.14,5.28a1.4,1.4,0,0,0,1.26,0l7.91-4.57c.34-.19.32-.52,0-.73l-9.14-5.28a1.39,1.39,0,0,0-1.24-.08Zm-46.23,26.69-7.9,4.56c-.34.2-.32.52,0,.73l9.14,5.28a1.42,1.42,0,0,0,1.27,0l7.9-4.57c.34-.19.32-.52,0-.73L263,419.61a1.39,1.39,0,0,0-1.24-.08ZM273.29,413l-7.91,4.56c-.33.19-.31.52.05.73l9.14,5.28a1.4,1.4,0,0,0,1.26,0l7.91-4.56c.34-.2.32-.52,0-.73L274.59,413a1.38,1.38,0,0,0-1.25-.09Zm-8.44,47.1,7.91-4.57c.34-.19.32-.52,0-.73l-9.15-5.27a1.4,1.4,0,0,0-1.26,0L254.44,454c-.33.2-.31.52.05.73l9.14,5.28a1.39,1.39,0,0,0,1.24-.09ZM197,453.2l-9.14-5.28a1.4,1.4,0,0,0-1.26,0l-7.91,4.56c-.33.2-.31.52.05.73l9.14,5.28a1.4,1.4,0,0,0,1.26,0l7.91-4.56a.45.45,0,0,0,0-.82Zm17.32,5.08L205.21,453a1.4,1.4,0,0,0-1.26,0l-12.17,7c-.33.2-.31.52.05.73L201,466a1.4,1.4,0,0,0,1.26,0l12.17-7c.35-.29.33-.62-.06-.83ZM183,443l-9.15-5.27a1.4,1.4,0,0,0-1.26,0l-9.73,5.62c-.34.19-.32.52,0,.73l9.15,5.28a1.4,1.4,0,0,0,1.26,0l9.73-5.62c.4-.29.38-.62,0-.83Zm7.46-4.3a1.4,1.4,0,0,0,1.26,0l7.91-4.56c.33-.2.31-.52,0-.73l-9.14-5.28a1.4,1.4,0,0,0-1.26,0l-7.91,4.57c-.34.19-.32.52,0,.73Zm40,25.38-9.13-5.39a1.4,1.4,0,0,0-1.26,0l-15.2,8.77c-.34.2-.32.52,0,.73l9.14,5.28a1.42,1.42,0,0,0,1.27,0l15.2-8.78c.37-.17.35-.49,0-.7Zm7.58,10.7-9.14-5.28a1.4,1.4,0,0,0-1.26,0l-9.73,5.62c-.34.19-.32.52,0,.72l9.15,5.28a1.4,1.4,0,0,0,1.26,0l9.73-5.62c.39-.27.36-.6,0-.81Zm38.35-85.69a1.4,1.4,0,0,0,1.26,0l7.91-4.56c.34-.2.32-.52,0-.73l-9.15-5.28a1.4,1.4,0,0,0-1.26,0l-7.9,4.57c-.34.19-.32.52,0,.73Zm-23.06,13.25a1.4,1.4,0,0,0,1.26,0l7.91-4.57c.33-.19.31-.52-.05-.73l-9.14-5.27a1.4,1.4,0,0,0-1.26,0l-7.91,4.56c-.33.2-.31.52,0,.73Zm-51.26,29.59a1.4,1.4,0,0,0,1.26,0l7.91-4.56c.34-.2.32-.52,0-.73l-9.15-5.28a1.4,1.4,0,0,0-1.26,0l-7.9,4.57c-.34.19-.32.52,0,.73Zm62.78-36.24a1.4,1.4,0,0,0,1.26,0l7.91-4.57c.33-.19.31-.52,0-.73l-9.14-5.28a1.4,1.4,0,0,0-1.26,0l-7.91,4.56c-.34.2-.32.52,0,.73ZM241.74,409a1.4,1.4,0,0,0,1.26,0l7.91-4.56a.39.39,0,0,0,0-.73l-9.15-5.28a1.4,1.4,0,0,0-1.26,0L232.59,403c-.33.19-.31.52,0,.73Zm2.68,66.54a1.42,1.42,0,0,0-1.27,0l-12.16,7c-.34.19-.32.52,0,.73l9.15,5.27a1.4,1.4,0,0,0,1.26,0l12.16-7c.34-.2.32-.52,0-.73Zm-19.26-57a1.4,1.4,0,0,0,1.26,0l7.91-4.57c.33-.19.31-.52-.05-.73L225.14,408a1.4,1.4,0,0,0-1.26,0L216,412.54c-.34.2-.32.52,0,.73Zm-11.56,6.67a1.4,1.4,0,0,0,1.26,0l7.91-4.57c.34-.19.31-.52-.05-.72l-9.14-5.28a1.4,1.4,0,0,0-1.26,0l-7.91,4.57c-.33.19-.31.52.05.72ZM458.52,351.9a1.4,1.4,0,0,0-1.26,0L437.8,363.14c-.34.19-.32.52,0,.73l9.15,5.27a1.4,1.4,0,0,0,1.26,0l19.46-11.24c.34-.19.32-.52,0-.73ZM433,366.68a1.42,1.42,0,0,0-1.27,0l-7.9,4.56c-.34.2-.32.52,0,.73l9.15,5.28a1.4,1.4,0,0,0,1.26,0l7.9-4.57c.34-.19.32-.52,0-.73ZM276.43,453.3l7.91-4.62c.33-.19.31-.52,0-.73l-9.14-5.28a1.4,1.4,0,0,0-1.26,0L266,447.23c-.34.2-.32.52,0,.73l9.14,5.28a1.4,1.4,0,0,0,1.26.05ZM409.86,380a1.4,1.4,0,0,0-1.26,0l-7.91,4.57c-.33.19-.31.52,0,.73l9.14,5.28a1.4,1.4,0,0,0,1.26,0l7.91-4.56c.34-.2.32-.52,0-.73Zm60.22-34.77a1.4,1.4,0,0,0-1.26,0l-7.91,4.56a.4.4,0,0,0,0,.73l9.14,5.28a1.4,1.4,0,0,0,1.26,0l7.91-4.56c.33-.19.31-.52,0-.73Zm20.7-1.39-22.21-12.82a1.4,1.4,0,0,0-1.26,0l-7.9,4.57c-.34.19-.32.52,0,.73l22.21,12.82a1.4,1.4,0,0,0,1.26,0l7.9-4.56c.38-.22.36-.54,0-.75ZM366.68,405a1.42,1.42,0,0,0-1.27,0l-9.73,5.62a.39.39,0,0,0,0,.72l9.14,5.28a1.4,1.4,0,0,0,1.26,0l9.73-5.62c.34-.19.32-.52,0-.73Zm29.19-16.85a1.4,1.4,0,0,0-1.26,0l-12.16,7c-.34.2-.32.52,0,.73l9.14,5.28a1.42,1.42,0,0,0,1.27,0l12.16-7c.34-.19.32-.52,0-.73Zm-56,32.3a1.4,1.4,0,0,0-1.26,0L273.53,458c-.34.2-.32.52,0,.73l9.15,5.28a1.4,1.4,0,0,0,1.26,0L349,426.41c.34-.19.32-.52,0-.73ZM271.14,460.1a1.4,1.4,0,0,0-1.26,0l-9.73,5.62c-.34.19-.32.52,0,.73l9.19,5.23a1.42,1.42,0,0,0,1.27,0l9.73-5.62a.39.39,0,0,0,0-.72Zm82.2-47.42a1.4,1.4,0,0,0-1.26,0l-9.73,5.62c-.34.2-.32.52,0,.73l9.14,5.28a1.4,1.4,0,0,0,1.26,0l9.73-5.61c.34-.2.32-.52,0-.73Zm-95.49,55.13a1.4,1.4,0,0,0-1.26,0l-9.74,5.62c-.33.19-.31.52.05.72l9.14,5.28a1.4,1.4,0,0,0,1.26,0l9.74-5.62c.33-.19.31-.52,0-.73Zm122.26-70.58a1.4,1.4,0,0,0-1.26,0l-9.74,5.62c-.33.19-.31.52,0,.73l9.14,5.28a1.4,1.4,0,0,0,1.26,0l9.74-5.62a.39.39,0,0,0,0-.72Zm41.36-23.88a1.4,1.4,0,0,0-1.26,0l-7.91,4.57c-.34.19-.32.52.05.72l9.14,5.28a1.4,1.4,0,0,0,1.26,0l7.91-4.57a.39.39,0,0,0,0-.72ZM446.79,355l7.91-4.57a.4.4,0,0,0,0-.73l-9.14-5.28a1.4,1.4,0,0,0-1.26,0l-7.91,4.56a.4.4,0,0,0,0,.73l9.14,5.28a1.39,1.39,0,0,0,1.21,0Zm-51.67-.34,7.91-4.56a.4.4,0,0,0,0-.73l-9.14-5.28a1.4,1.4,0,0,0-1.26,0l-7.91,4.57c-.34.19-.31.52,0,.73l9.14,5.28a1.42,1.42,0,0,0,1.16,0Zm-26.19,45.29,23.12-13.35c.33-.19.31-.52,0-.73l-9.14-5.28a1.4,1.4,0,0,0-1.26,0l-23.11,13.34c-.34.2-.32.52,0,.73l9.14,5.28a1.4,1.4,0,0,0,1.2,0Zm65-38.31a1.4,1.4,0,0,0,1.26,0L443.1,357c.34-.19.32-.52,0-.73L434,351a1.4,1.4,0,0,0-1.26,0l-7.91,4.57c-.33.19-.31.52.05.72Zm-11.8-7.51,7.91-4.57c.34-.19.32-.52,0-.73l-9.15-5.28a1.4,1.4,0,0,0-1.26,0l-7.91,4.56a.4.4,0,0,0,0,.73l9.14,5.28a1.4,1.4,0,0,0,1.26,0Zm-64.79,52.49,7.9-4.57c.34-.19.32-.52,0-.72L356.1,396a1.4,1.4,0,0,0-1.26,0l-7.91,4.57c-.34.19-.32.52,0,.72l9.15,5.28A1.4,1.4,0,0,0,357.34,406.58Zm51-30.23a1.4,1.4,0,0,0,1.26,0l7.91-4.57c.33-.19.31-.52-.05-.73l-9.14-5.27a1.4,1.4,0,0,0-1.26,0l-7.91,4.56c-.34.2-.32.52,0,.73Zm-108.8,63.59,7.91-4.56c.34-.2.32-.52,0-.73l-9.15-5.28a1.4,1.4,0,0,0-1.26,0l-7.91,4.57c-.33.19-.31.52.05.73l9.14,5.27A1.38,1.38,0,0,0,299.54,439.94Zm11.56-6.67L319,428.7c.33-.19.31-.52-.05-.73l-9.14-5.27a1.4,1.4,0,0,0-1.26,0l-7.91,4.57c-.34.19-.31.52.05.72l9.14,5.28A1.4,1.4,0,0,0,311.1,433.27ZM288,446.61l7.9-4.56c.34-.2.32-.52,0-.73L286.75,436a1.42,1.42,0,0,0-1.27,0l-7.9,4.57c-.34.19-.32.52,0,.73l9.15,5.28a1.37,1.37,0,0,0,1.26,0Zm46.22-26.69,7.91-4.56c.34-.2.32-.52,0-.73L333,409.35a1.4,1.4,0,0,0-1.26,0l-7.91,4.56c-.33.19-.31.52.05.73l9.14,5.28a1.38,1.38,0,0,0,1.22,0Zm-11.55,6.68,7.9-4.57c.34-.19.32-.52,0-.73L321.42,416a1.42,1.42,0,0,0-1.27,0l-7.9,4.56c-.34.2-.32.52,0,.73l9.15,5.28a1.4,1.4,0,0,0,1.26,0Zm23.11-13.35,7.91-4.56c.33-.2.31-.52-.05-.73l-9.14-5.28a1.4,1.4,0,0,0-1.26,0l-7.91,4.57c-.33.19-.31.52,0,.73l9.14,5.28a1.41,1.41,0,0,0,1.31,0Zm52.87-98.71a1.4,1.4,0,0,0,1.26,0l7.91-4.57c.34-.19.32-.51,0-.72l-2.44-1.41a1.4,1.4,0,0,0-1.26,0l-7.91,4.56c-.33.19-.31.52,0,.73Zm-56.86,36.71a1.4,1.4,0,0,0,1.26,0l7.91-4.56c.34-.2.32-.52-.05-.73l-9.14-5.28a1.4,1.4,0,0,0-1.26,0l-7.91,4.57c-.33.19-.31.52.05.73Zm23.11-13.35a1.42,1.42,0,0,0,1.27,0l7.9-4.57c.34-.19.32-.52,0-.73l-9.15-5.27a1.4,1.4,0,0,0-1.26,0l-7.9,4.57c-.34.19-.32.52,0,.72Zm-37.22,21.49a1.4,1.4,0,0,0,1.26,0l7.91-4.56c.33-.2.31-.52,0-.73l-9.14-5.28a1.4,1.4,0,0,0-1.26,0l-7.91,4.57c-.34.19-.31.52,0,.73Zm25.67-14.81a1.4,1.4,0,0,0,1.26,0l7.91-4.56a.4.4,0,0,0,0-.73L353.37,334a1.4,1.4,0,0,0-1.26,0l-7.91,4.57c-.34.19-.32.52,0,.73Zm-48.78,28.16a1.4,1.4,0,0,0,1.26,0l7.9-4.57c.34-.19.32-.52,0-.73l-9.14-5.28a1.42,1.42,0,0,0-1.27,0l-7.9,4.56c-.34.2-.32.52,0,.73Zm11.55-6.67a1.4,1.4,0,0,0,1.26,0l7.91-4.56c.34-.2.32-.52,0-.73l-9.15-5.28a1.4,1.4,0,0,0-1.26,0L307,360.07c-.33.19-.31.52.05.73Zm59.42-38.18a1.4,1.4,0,0,0,1.26,0l7.91-4.56c.33-.19.31-.52-.05-.73l-2.43-1.4a1.4,1.4,0,0,0-1.26,0l-7.91,4.57c-.33.19-.32.51,0,.72Zm34.67-20a1.4,1.4,0,0,0,1.26,0l7.91-4.57c.34-.19.31-.52,0-.73l-2.43-1.4a1.4,1.4,0,0,0-1.26,0l-7.91,4.57c-.33.19-.31.52,0,.73ZM429.41,319a1.4,1.4,0,0,0,1.26,0l7.91-4.57c.33-.19.31-.52,0-.73l-9.14-5.28a1.4,1.4,0,0,0-1.26,0L420.27,313c-.34.2-.32.52,0,.73Zm28.93,29.3,7.91-4.56a.4.4,0,0,0,0-.73l-9.14-5.28a1.4,1.4,0,0,0-1.26,0l-7.91,4.57c-.34.19-.32.52,0,.73l9.15,5.28A1.38,1.38,0,0,0,458.34,348.28Zm-71.21-27.06a1.4,1.4,0,0,0,1.26,0l7.91-4.56a.4.4,0,0,0,0-.73l-2.43-1.41a1.42,1.42,0,0,0-1.27,0l-7.9,4.56c-.34.2-.32.52,0,.73ZM293,379.41a1.4,1.4,0,0,0,1.26,0l7.91-4.57c.33-.19.31-.52,0-.73L293,368.84a1.4,1.4,0,0,0-1.26,0l-7.91,4.57c-.34.19-.32.51,0,.72Z"/><path class="cls-7" d="M344.25,448.78l78-45a9.41,9.41,0,0,1,8.52,0l44.74,25.83c2.35,1.36,2.35,3.56,0,4.92l-78,45a9.41,9.41,0,0,1-8.52,0l-44.74-25.85C341.9,452.34,341.9,450.14,344.25,448.78Z"/></g><g id="Shield"><path class="cls-11" d="M487.75,232.13h0l-.09-.06-13.32-7.7c-.77-.34-1.9,0-3.26,1-12.39,9.49-29,12.43-42.68,8.09a30.33,30.33,0,0,1-2.49-2.58,3.33,3.33,0,0,0-.25-.28h0a5.56,5.56,0,0,0-1.38-1.13l-.23-.13-13.35-7.66c-1.52-.72-2.9,0-3.82,2.26-12.88,32-40.33,64.45-58.64,72.56a10.26,10.26,0,0,0-3.6,2.69,7.63,7.63,0,0,0-2,5.24l2.64,71.87c0,20.77,8.77,42.7,26.65,53.37l13.8,8,.25.13A48.52,48.52,0,0,0,410.43,444c1.92,0,3.87-.08,5.88-.28a19.77,19.77,0,0,0,10.43-5.21c40-41.32,59.46-97.24,59.46-128.19l2.64-75.18C488.86,233.52,488.47,232.52,487.75,232.13Z"/><path class="cls-4" d="M488.8,235.14l-2.64,75.18c0,30.95-19.46,86.87-59.46,128.19a19.77,19.77,0,0,1-10.43,5.21c-2,.2-4,.28-5.88.28a48.52,48.52,0,0,1-24.45-6.21l-.25-.13-.48-.3c-17.88-10.67-26.65-32.6-26.65-53.36l-2.63-71.87a7.61,7.61,0,0,1,2-5.25,10.48,10.48,0,0,1,3.6-2.69c18.34-8.11,45.81-40.51,58.68-72.51.91-2.26,2.31-3,3.83-2.28h0l.23.13a5.56,5.56,0,0,1,1.38,1.13h0a3.33,3.33,0,0,1,.25.28c13.67,15.91,40.55,15.9,58.49,2.16,1.36-1,2.5-1.36,3.27-1l.09.06h0C488.47,232.52,488.86,233.52,488.8,235.14Z"/><path class="cls-12" d="M487.67,232c-.77-.35-1.9,0-3.26,1-16.9,12.94-41.73,13.71-56,.43,13.62,4.34,30.25,1.39,42.65-8.1,1.36-1,2.49-1.36,3.26-1Z"/><path class="cls-12" d="M424.05,229.35c-1.53-.72-2.92,0-3.84,2.28-12.88,32-40.33,64.44-58.64,72.56a10.27,10.27,0,0,0-3.61,2.68,8.66,8.66,0,0,0-.91,1.27l-13.31-7.69a8.42,8.42,0,0,1,.9-1.25,6.67,6.67,0,0,1,.59-.6h0l.23-.23a1.51,1.51,0,0,0,.23-.21,9.8,9.8,0,0,1,2.54-1.62C366.54,288.42,394,256,406.88,224c.91-2.26,2.29-3,3.82-2.26Z"/><path class="cls-11" d="M345.24,298.56a2.29,2.29,0,0,1,.23-.21l-.23.23S345.23,298.56,345.24,298.56Z"/><path class="cls-13" d="M345.47,298.35l-.23.23h0A2.5,2.5,0,0,1,345.47,298.35Z"/><path class="cls-13" d="M385.94,437.78l-.25-.12-13.8-8C354,419,345.24,397.06,345.24,376.3l-2.63-71.87a7,7,0,0,1,1.13-4l13.31,7.69a7.17,7.17,0,0,0-1.12,4L358.57,384c0,20.76,8.77,42.69,26.65,53.36l.47.3Z"/><path class="cls-8" d="M433,371.68,411.71,384l3.3-38.53c-2.54-1.35-4.17-4.66-4.17-9.42,0-8.49,5.16-18.34,11.52-22s11.52.23,11.52,8.71A29,29,0,0,1,429.71,337Z"/><polygon class="cls-6" points="433.01 371.65 413.72 360.51 411.71 383.95 433.01 371.65"/><path class="cls-6" d="M422.34,314c-4.16,2.41-7.8,7.46-9.82,13l17.17,9.92h0a29,29,0,0,0,4.17-14.24C433.88,314.21,428.73,310.31,422.34,314Z"/></g><g id="Key"><path class="cls-11" d="M155.92,595.48v6.41c0,7.53,4.94,15.06,14.88,20.8,15,8.65,37,10.76,55.41,6.35l17.12,9.88,13.14-3,9,5.18L266,652l4.83,2.79,12.14,1.06,8.73,4.87v6.12l10.95,6.32h27.84l10-5.76v-6.47l-89.06-45c4.1-4.35,6.16-9.18,6.17-14V595.4c-1.34-6.25-6.55-9.47-14.87-14.27-19.84-11.46-52-11.46-71.86,0C161.88,586.36,156.82,588.75,155.92,595.48ZM183.2,588c5.62-3.24,14.73-3.24,20.35,0s5.63,8.51,0,11.75-14.73,3.25-20.35,0-5.62-8.5,0-11.75Z"/><path class="cls-14" d="M155.92,595.48v6.41c0,7.53,4.94,15.06,14.88,20.8,15,8.65,37,10.76,55.41,6.35l17.12,9.88,13.14-3,9,5.18L266,652l4.83,2.79,12.14,1.06,8.73,4.87v6.12l10.95,6.32h27.84l10-5.76v-6.47l-89.06-45c4.1-4.35,6.16-9.18,6.17-14V595.4c-1.34-6.25-6.55-9.47-14.87-14.27-19.84-11.46-52-11.46-71.86,0C161.88,586.36,156.82,588.75,155.92,595.48ZM183.2,588c5.62-3.24,14.73-3.24,20.35,0s5.63,8.51,0,11.75-14.73,3.25-20.35,0-5.62-8.5,0-11.75Z"/><path class="cls-4" d="M170.8,616.23c15,8.65,37,10.76,55.41,6.35l17.12,9.88,13.14-3,9,5.18.49,10.85,4.83,2.79,12.14,1.07,9.41,5.33-.74,5.7,10.95,6.32h27.84l10-5.76-89-51.45c10.49-11.12,7.61-25.34-8.7-34.75-19.84-11.46-52-11.46-71.86,0S151,604.77,170.8,616.23Zm12.4-34.7c5.62-3.24,14.73-3.24,20.35,0s5.63,8.51,0,11.76-14.73,3.24-20.35,0-5.62-8.51,0-11.76Z"/><path class="cls-15" d="M206.73,619.19c-12.59,0-24.35-2.78-33.11-7.84-7.67-4.42-12.07-10.21-12.07-15.87s4.4-11.43,12.07-15.86c8.76-5.06,20.52-7.84,33.11-7.84s24.36,2.78,33.12,7.84c7.67,4.43,12.06,10.21,12.06,15.86s-4.39,11.45-12.06,15.87C231.09,616.41,219.34,619.19,206.73,619.19Zm0-45.16c-12.2,0-23.56,2.68-32,7.54-6.95,4-10.94,9.09-10.94,13.91s4,9.91,11,13.92c8.42,4.86,19.78,7.54,32,7.54s23.57-2.68,32-7.54c7-4,10.94-9.09,10.94-13.92s-4-9.9-10.94-13.91C230.34,576.68,218.94,574,206.73,574Z"/><path class="cls-14" d="M188.45,622.85v6.46a86.22,86.22,0,0,0,37.76-.27v-6.46A86.22,86.22,0,0,1,188.45,622.85Z"/><polygon class="cls-14" points="243.33 632.46 243.33 638.92 256.47 635.95 256.47 629.48 243.33 632.46"/><polygon class="cls-14" points="265.45 634.66 265.45 641.13 265.94 651.98 265.94 645.51 265.45 634.66"/><polygon class="cls-14" points="270.77 648.3 270.77 654.77 282.91 655.83 282.91 649.37 270.77 648.3"/><rect class="cls-14" x="302.59" y="666.67" width="27.85" height="6.47"/><polygon class="cls-13" points="340.42 660.91 340.42 667.38 330.44 673.14 330.44 666.67 334.81 664.15 334.81 666.94 337.22 665.54 337.22 662.72 340.42 660.91"/><polygon class="cls-11" points="337.22 662.72 334.81 664.15 334.81 666.94 337.22 665.54 337.22 662.72"/><polygon class="cls-13" points="337.22 662.72 337.22 665.54 245.89 612.81 248.31 611.38 337.22 662.72"/><polygon class="cls-13" points="248.31 611.38 248.31 614.2 245.89 612.81 248.31 611.38"/></g><g id="Character"><path class="cls-16" d="M645.34,420.48c1.15-42.68-2.27-52.91-13.63-60.73l-4.37,24.73s5.18,29.15,4.63,38.86c-.49,8.53-1.32,19.2-3.34,26.09a5.25,5.25,0,0,1-2.26,2.93c-2.89,1.81-4.06,3.66-6.24,6-1.71,1.78-3.16,2.23-2.94,2.8a2.81,2.81,0,0,0,3.6,1.27,19.71,19.71,0,0,0,4.11-2.23,26.33,26.33,0,0,1-4.21,7.23c-4,5-4.23,8,4,8.1,5.13,0,9.23-3.12,13.09-14.43a91.62,91.62,0,0,0,3.61-12.71C643.27,437.15,645.16,427.35,645.34,420.48Z"/><path class="cls-11" d="M622.14,356.5c5.43-.78,12.8.35,17.57,8.87s5.93,23.18,6.47,37.75c0,0-9.46,7.91-20.81,4Z"/><path class="cls-17" d="M622.14,356.5c5.43-.78,12.8.35,17.57,8.87s5.93,23.18,6.47,37.75c0,0-9.46,7.91-20.81,4Z"/><path class="cls-7" d="M638.1,591.29c.87.33,1.08,2,1.21,5.23.1,2.47.63,6.78-2.26,7.64s-7.13.42-9-1.91c-2.31-2.9-3.88-5.46-7.18-9-2.86-3.08-6-6-7.11-10.26-1-3.89-.18-5.58,2.48-6.71,3.65-1.56,9.4,3.53,12.26,4.33C631,581.3,637.24,591,638.1,591.29Z"/><path class="cls-16" d="M638.1,588.27v4s-4.16,3.2-10.12.27c-.17-.39-1-5.73-1-5.73Z"/><path class="cls-7" d="M605.67,614.37q1,3.23,1.76,6.53c.5,2.43,1.2,6.47.35,8.3s-4.15,3-9.28,3c-3.32,0-8.5,2.23-12,4.21s-11.28,2.86-15.15,2.4c-4.56-.53-9.29-3.18-10-5.07s.24-3.85,11-8.43c.1,0,14.95-4.87,20.15-10.61Z"/><path class="cls-16" d="M605.67,610v4.68c0,1.68-2,4.23-7.19,4-3.65-.13-6.19-1.11-6-4.11v-4.33Z"/><path class="cls-6" d="M640.71,535.11A108.84,108.84,0,0,0,636,514.25s1.43-18,2.12-35.06c.74-18.43,0-41.6.31-46.2,0,0-59.48-12-60.54,9.27s2.35,75.55,3,84.91,2.32,17.64,4.25,32.81c1.91,15,7.26,50.34,7.26,50.34,6.8,3.67,13.24-.28,13.24-.28s4.18-42.6,3.74-53.4a92.63,92.63,0,0,0-4.09-23.58s1.12-17.57,2.12-32.85,2-22.62,2.28-29.27l1.28-.63s1.31,26.36,2,35.72,2.19,18.34,4.9,35.72c2.35,15.09,9.35,47,9.35,47,6.79,3.67,10.84-.48,10.84-.48S642.54,548.2,640.71,535.11Z"/><path class="cls-7" d="M609.72,470.94s14.43-7.11,21.65-13.52c0,0-6.7,9.45-15.5,13.63,0,0-3.14,32.76-3.12,32.11l-1.81-32.27Z"/><polygon class="cls-16" points="596.88 349.76 600.4 369.13 617.9 367.85 614.22 345.89 596.88 349.76"/><path class="cls-11" d="M636.34,366.43c-1.74-5.26-8.42-11-15.1-9.75C609,359,599.24,361.4,592,364c-6.12,2.18-11.7,7.48-12.2,27.61,0,0-2,46.95-2.09,56,15.37,6.09,31.36,5.9,40.2,4,18.39-4,20.61-11.65,20.61-11.65s.24-33.76-.31-48.34C637.73,379.22,637.57,370.05,636.34,366.43Z"/><g class="cls-18"><path d="M636.34,366.43c-1.74-5.26-8.42-11-15.1-9.75C609,359,599.24,361.4,592,364c-6.12,2.18-11.7,7.48-12.2,27.61,0,0-2,46.95-2.09,56,15.37,6.09,31.36,5.9,40.2,4,18.39-4,20.61-11.65,20.61-11.65s.24-33.76-.31-48.34C637.73,379.22,637.57,370.05,636.34,366.43Z"/></g><path class="cls-19" d="M583.34,326.19s-4.44,7.08-3.9,7.75,3.93,1.21,3.93,1.21Z"/><path class="cls-16" d="M595.7,306.62c-9.25,2.17-11.84,6.32-12.39,21.11-.56,15.45,1.12,20.26,3.19,22.3,1.4,1.37,9,1.45,12.83.31,4.77-1.44,15.53-5.53,20.44-13.4,5.78-9.27,7.07-21.68.55-26.62C611.15,303.38,599.47,305.74,595.7,306.62Z"/><path class="cls-7" d="M583.41,310.47c2.72,4.65,8.61,6.87,8.61,6.87,1.78,2,.8,9.9,3.92,11.15,0,0,1.34-5.73,6.17-5.12s5.65,6.76,2.68,10.58-5.84,2.44-5.84,2.44.33,8.15,4,12.69c0,0,4.14,1.24,11.67-.55,4.62-1.09,11.06-7,13.69-13.26,5.55-13.15,5.69-24.86-2.69-28.19-1-6-5.82-8.55-11.23-9.67-11.64-2.4-19.15,4.87-28.12,4.24C581.19,301.29,580.23,305,583.41,310.47Z"/><path class="cls-7" d="M625.85,309.09l5.49-3.41a3.23,3.23,0,1,0-5.49,3.41Z"/><path class="cls-16" d="M518,398.86c2.88,1.28,36.78,26.33,42.07,23.41s32.4-34.6,32.4-34.6a21.89,21.89,0,0,0,0-23.76s-8.7,1.6-13.24,8.48S555,403.92,555,403.92q-7.29-3.65-14.51-7.39c-4-2.06-8-4.11-11.85-6.32a14.11,14.11,0,0,1-3-1.89c-1.92-1.89-1.59-6.48-1.55-9a31.42,31.42,0,0,1,.16-3.5c.17-1.42.44-4.91-2.12-3.81a3.24,3.24,0,0,0-1.23,1,6.11,6.11,0,0,0-.92,1.75c-.48,1.51-.32,3.16-.77,4.68a1.36,1.36,0,0,1-.31.61,1.09,1.09,0,0,1-.81.25c-3.74-.12-7.28-5.35-9-8.13-.77-1.24-1.52-2.62-2.84-3.23-2-1-4.5.41-5.81,2.24a11.82,11.82,0,0,0-1.85,8.24,16.34,16.34,0,0,0,4.87,10.32C507.83,393.89,512.59,396.45,518,398.86Z"/><path class="cls-11" d="M595.23,362.88c-3.74.43-10,.72-16,7.61-7.12,8.06-16.49,21.21-16.49,21.21a20.77,20.77,0,0,0,16.4,15.44S592,394,595.53,386.76,599.64,367.77,595.23,362.88Z"/><path class="cls-17" d="M595.23,362.88c-3.74.43-10,.72-16,7.61-7.12,8.06-16.49,21.21-16.49,21.21a20.77,20.77,0,0,0,16.4,15.44S592,394,595.53,386.76,599.64,367.77,595.23,362.88Z"/></g></g></g></svg>