<svg xmlns="http://www.w3.org/2000/svg" viewBox="0 0 977.43 676.65"><defs><style>.cls-1{fill:#e5e5f9;}.cls-2{fill:#b4afff;}.cls-3{fill:#9292ec;}.cls-4{fill:#ff592d;}.cls-5{fill:#3e0004;}.cls-6{fill:#4949ff;}.cls-7{fill:#ff8961;}.cls-8{fill:none;stroke:#5a0225;stroke-linecap:round;stroke-miterlimit:10;stroke-width:0.5px;}.cls-9{fill:#5a0225;}.cls-10{fill:#7800be;}.cls-11{fill:#3a0072;}</style></defs><title>Recurso 1</title><g id="Capa_2" data-name="Capa 2"><g id="Capa_1-2" data-name="Capa 1"><path class="cls-1" d="M132.26,374.15S41,241.87,176.11,87.24,481.77,14.15,542.39,97.57s135.48,25.3,233,87.3,126.89,151.18,13.16,295.9S197,541.55,132.26,374.15Z"/><ellipse class="cls-1" cx="488.71" cy="602.03" rx="488.83" ry="73.84" transform="translate(-13.22 10.98) rotate(-1.27)"/><path class="cls-2" d="M953.86,465.3c-4.27,39.52-62,69.43-62,69.43-21.36,53.4-130.3,73.7-130.3,73.7-63,48.06-188,31-290.52,17.09s-109-19.23-239.25-19.23C121.64,606.29,17.65,583.43,4.2,546c-2.48-6.84-1.93-14.19,2.22-22C33.12,473.81,126,465.26,126,465.26c44.86-37.38,142.06-45.93,142.06-45.93s530.84-8.54,584.24-15c44.91-5.38,89,13.37,99.42,43A40.37,40.37,0,0,1,953.86,465.3Z"/><path class="cls-3" d="M134.64,472.78S91.2,485.6,79.81,500.55s29.19-4.27,39.88-4.27-31.33,22.78-22.79,37,41.3-10.68,65.51-16.37,62.66,5,100.4,18.51,73.34-4.27,89.72-13.53,64.08-42.72,133.87-43.43,130.3,7.12,200.08-.72,86.16,6.41,99,9.26,2.85-19.23-30.62-24.21-57.67,2.14-54.11-4.27,54.11-19.23,87.58-18.52,83.31-13.52,86.87-21.36-23.5-9.25-59.81-10.68-507.7,19.91-544.73,29.91S172.39,453.55,134.64,472.78Z"/><path class="cls-4" d="M239.85,315.77s-19.23,4.81-30.44,31.51-63.56,108.94-63.56,108.94l-50.2-48.59-22.43-2.14s40.59,90.25,64.09,103.6S250,373.45,250,373.45Z"/><path class="cls-5" d="M540,384.13S590.71,396.94,644.65,398c0,0,63-17.62,89.19-14.42s52.33,7.48,52.33,7.48l4.81,23S656.93,441.31,604.6,440.24,540,384.13,540,384.13Z"/><path class="cls-6" d="M238.78,323.25s-7.48,45.92,4.8,80.64,49.14,47.53,82.25,49.66,116.42,1.07,116.42,1.07,28.3-35.78-10.68-79c0,0-74.77-47-95.06-70S238.78,323.25,238.78,323.25Z"/><path class="cls-7" d="M258.54,325.38s-3.74,21.36,17.62,23.5,58.75-25.63,58.75-25.63S292.18,304.56,258.54,325.38Z"/><path class="cls-7" d="M307.16,275.27c-4.1,13.11,3.71,20.55,3.71,20.55-4.61,18.16-27,27.43-27,27.43a37.77,37.77,0,0,0-9-7.86,98.5,98.5,0,0,0-15.39-8.16h-.42a43,43,0,0,1-14.19.25c-16.66-16.23-21.91-27.08-19.48-39.9,3-15.72,3.12-27.26,3.33-38.66a47.94,47.94,0,0,1,5-20.17c15.51-27.81,57.47-23.63,70.71-15.25s26.32,29.22,19.61,48.66A135.56,135.56,0,0,1,307.16,275.27Z"/><path class="cls-8" d="M305.39,257.35s-6.87,6.09-6.31,9.29,3.69,3.36,1.74,7.33a41.18,41.18,0,0,1-3.1,5.59"/><path class="cls-9" d="M232.55,233.6s5.55-1.2,12.32,4.6c0,0-.73-5.95-4.93-7.06S232.55,233.6,232.55,233.6Z"/><path class="cls-9" d="M261.18,241.5s4.31-4.33,9.89-3a35.48,35.48,0,0,1,9.65,4s-2-5.75-7.37-7.51S263.23,236,261.18,241.5Z"/><path class="cls-9" d="M241.92,249c-.07,2.88-1,5.19-2.19,5.16s-2-2.38-1.95-5.26,1.05-5.18,2.19-5.15S242,246.08,241.92,249Z"/><path class="cls-9" d="M266.46,254.7c-.07,2.87-1,5.18-2.19,5.15s-2-2.38-1.95-5.25,1.05-5.19,2.19-5.16S266.53,251.87,266.46,254.7Z"/><path class="cls-8" d="M248.26,253.42s-9.46,13.34-7.83,15.31,9.3,4.7,9.3,4.7"/><path class="cls-8" d="M248,280.53s7.1,1.71,13.16-1.73"/><path class="cls-9" d="M276.14,314.7c-.43.26-.9.47-1.32.69a98.5,98.5,0,0,0-15.39-8.16H259l3.29-1s21.36-4.87,29.39-19.91C291.69,286.33,292.39,305.87,276.14,314.7Z"/><path class="cls-9" d="M295,284.62s5.34,0,8.9-6.59,8.19-10.68,6.59-21.89-15.67-1.25-18.34,9.25c0,0-10.86-15.84-2.49-31.86,0,0-.89-4.81-6.76-3.56s-18.16,4.09-20.65,1.6,2.13-7.12,4.27-8.9-9.44,6.59-18.16,5.52-5.7-6.59-1.07-9.26-1.42-3.2-5.16-.18-7.39,9.73-13.49,10.21c0,0-.4,20-1.29,28.07s-2.67,10.5-1.24,18,11.75,28.67,19.22,32.23c0,0,8.9,1.6,14.78-.36,0,0,18.19,7.65,23.69,16.38,0,0-34.91,10.32-50.39,2.31s-26.35-23-24.57-44.68,5.88-35.07,3.74-43.26-14.06-21.18-.71-41.3,46.64-27.06,74.59-22.61,37,30.09,37,30.09a38.53,38.53,0,0,1,18.34,18.51c6.23,13.53-4.63,39.52,1.78,56.08s17.27,34.18,13.88,57.14-41.12,42.9-61.77,39-15.13-35.24-3.38-50.55S295,284.62,295,284.62Z"/><path class="cls-9" d="M436.55,452.87s157.37,23.5,210.77,14.24,47.71-68.36,50.56-97.55L703.57,262l-21.36-5s-44.15,61.23-37.74,160.21c0,0-62.55-10.32-91.67-32.58-47.53-36.31-104.14-14.42-121.23-5.16Z"/><path class="cls-7" d="M682.21,257s8.64-19,9.7-25.37-9.07-17.63,7.48-22.43,22.43-2.94,31.24-5.88,24.84-6.67,30.44-4.27,6.14,2.94,8.55,5.61-48.87,23.76-56.08,33.91-10.15,24.27-10.15,24.27Z"/><path class="cls-7" d="M786.17,391.07s19.76,1.6,26.71-3.74,8-11.75,17.08-11.21,17.63,13.35,32.58,17.09,31.51,9.08,35.25,12.81-48.6,4.81-70.5,3.74S791,414,791,414Z"/><path class="cls-10" d="M62,335.32l11.18,70.17,49,5.7-8.73-76.58a9.3,9.3,0,0,0-8.72-8.23l-33-1.8a9.31,9.31,0,0,0-9.83,8.74h0A10.28,10.28,0,0,0,62,335.32Z"/><path class="cls-7" d="M360.54,363.3s-19.76,0-35.25,26.7-65.68,95.6-65.68,95.6S181.1,458.36,156,431.12c0,0-13.17-36-24.57-43.08L120,380.92,119.69,393S105.8,382.7,90.14,381.28s0,10.32,0,10.32-.36,8.19,2.49,11-2.32,6.59,2,10.15S98,426.1,101.92,429.3,129,442.48,129,442.48s64.44,66.22,104.32,82.6,54.83,7.12,75.83-19.59,70.14-96.12,72.63-114.64S375,360.63,360.54,363.3Z"/><path class="cls-7" d="M58.62,370.13c.06-.11.17-.2.23-.31-1.59-1.61-3.67-4.37-2.84-7.25,1.29-4.47,7.87-7.28,17.16-7s14.15,3.3,12.22,5.3-7.11,4.33-12.86,3.53L71.22,366a37.36,37.36,0,0,1,5.68.92c9,2.21,13.12,6.3,10.81,7.77s-7.87,2.73-13.33.73l-1.28,1a39.24,39.24,0,0,1,4.33.78c9,2.2,13.11,6.29,10.8,7.76s-7.87,2.73-13.32.74l-3,2.37c5.14,1.64,10.84,4.06,9.84,5.92-1.47,2.72-9.87,3.35-9.87,3.35l3.57,11.13s-11.12-5.25-14.9-10.92a7.41,7.41,0,0,1,.23-8.89c-1.25-1.82-3.15-5.31-1.59-8.21a6.34,6.34,0,0,1,1.36-1.65C59.31,377.13,56.93,373.27,58.62,370.13Z"/><path class="cls-11" d="M96.16,339.87,99,355a2.76,2.76,0,0,0,2.5,2.25l3.44.26a2.76,2.76,0,0,0,3-2.5v0a2.58,2.58,0,0,0,0-.68L105.35,339a2.78,2.78,0,0,0-2.64-2.3L99,336.6a2.78,2.78,0,0,0-2.85,2.67A4,4,0,0,0,96.16,339.87Z"/><path class="cls-3" d="M953.86,465.3c-4.27,39.52-62,69.43-62,69.43-21.36,53.4-130.3,73.7-130.3,73.7-63,48.06-188,31-290.52,17.09s-109-19.23-239.25-19.23C121.64,606.29,17.65,583.43,4.2,546,29.66,558.87,77.68,576.73,157,583.86c130.31,11.75,135.65-2.14,273.43,13.89S669.7,615.9,702.81,602s39.58-25.64,39.58-25.64,91.86,5.34,127.1-50.2c0,0,55.12-23.32,82.33-78.78A40.34,40.34,0,0,1,953.86,465.3Z"/></g></g></svg>