<svg xmlns="http://www.w3.org/2000/svg" viewBox="0 0 737.57 722.66"><defs><style>.cls-1{fill:#e1e1e1;}.cls-2{fill:#ececec;}.cls-3{fill:#f5f5f5;}.cls-4{fill:#1a2e35;}.cls-5{fill:#50b7e3;}.cls-6{fill:#fafafa;}.cls-7{fill:#ffbf9d;}.cls-8{fill:#ff9a6c;}.cls-15,.cls-9{fill:#fff;}.cls-10{fill:#002096;}.cls-11{fill:#ff0031;}.cls-12{fill:#c78976;}.cls-13,.cls-14,.cls-15{opacity:0.2;}.cls-13,.cls-15{isolation:isolate;}.cls-16{fill:#b66955;}.cls-17{fill:#375a64;}.cls-18{fill:#64c4f3;}.cls-19{fill:#ff4f5b;}</style></defs><title>Recurso 1</title><g id="Capa_2" data-name="Capa 2"><g id="Capa_1-2" data-name="Capa 1"><path class="cls-1" d="M734.44,145.5a17.71,17.71,0,0,0-13.52,3,31.27,31.27,0,0,0-9.23,10.7c-4.52,8-5.71,18.52-5.46,27.7,10.17-.93,18.46-9.38,22.4-13.93,6.22-7.2,13.1-24,5.81-27.51"/><path class="cls-1" d="M690.16,193.92a15.15,15.15,0,0,0,4.45-14.49A20,20,0,0,0,685.33,167c-2.09-1.28-4.65-2.25-7-1.44a6.46,6.46,0,0,0-3.91,5.25,13.06,13.06,0,0,0,1.13,6.7c3,7.3,7.14,13.81,14.58,16.39"/><path class="cls-2" d="M682.22,223.4a8.52,8.52,0,0,1,.6-1.83c.51-1.34,1.14-3,1.87-4.89a74.46,74.46,0,0,0,4.58-16.52,34.1,34.1,0,0,0-1.83-16.8c-1.64-4.08-3.57-6.11-3.41-6.22a6.55,6.55,0,0,1,1.31,1.42,21.25,21.25,0,0,1,2.68,4.55,32.61,32.61,0,0,1,2.13,17.16,65.59,65.59,0,0,1-4.87,16.64c-.86,2-1.61,3.67-2.14,4.79A8.2,8.2,0,0,1,682.22,223.4Z"/><path class="cls-2" d="M728.07,157.79a3.55,3.55,0,0,1-.43.7l-1.38,1.92-5.16,7c-4.36,5.88-10.36,14-16.87,23.08S692,207.87,687.8,213.9L682.87,221l-1.37,1.92a3,3,0,0,1-.53.64,5.09,5.09,0,0,1,.38-.74c.28-.47.74-1.21,1.23-2,1.08-1.74,2.69-4.23,4.7-7.28,4-6.12,9.72-14.49,16.23-23.57s12.6-17.2,17.09-23c2.25-2.89,4.09-5.21,5.39-6.8.6-.72,1.09-1.32,1.51-1.81A4.36,4.36,0,0,1,728.07,157.79Z"/><path class="cls-1" d="M697.6,204.93A35.35,35.35,0,0,1,729,197.35c2.76.7,5.86,2.22,6.26,5s-2.15,5.17-4.65,6.55a30.17,30.17,0,0,1-33.32-3.31"/><path class="cls-2" d="M722.39,202.85c0,.18-2.62-.33-6.82-.23a41.48,41.48,0,0,0-23.6,8.17,42.37,42.37,0,0,0-5.48,4.88c-2.86,3.08-4.2,5.35-4.36,5.25a7.57,7.57,0,0,1,.88-1.63,15.19,15.19,0,0,1,1.21-1.79,24,24,0,0,1,1.8-2.25,37.29,37.29,0,0,1,5.46-5.12,39.82,39.82,0,0,1,16.63-7.47,38,38,0,0,1,7.46-.68,27.59,27.59,0,0,1,2.87.15,17.32,17.32,0,0,1,2.15.28A7.52,7.52,0,0,1,722.39,202.85Z"/><path class="cls-1" d="M5.82,41.59a17.7,17.7,0,0,0-3,13.53A31.12,31.12,0,0,0,8.54,68c5.31,7.5,14.3,13.07,22.72,16.77,3.5-9.59-.6-20.7-3-26.2-3.85-8.71-16.08-22.1-22.39-17"/><path class="cls-1" d="M30.67,102.33c-1.41-5.12-6-9-11.19-10.22A20,20,0,0,0,4.29,95.19c-2,1.34-4,3.24-4.28,5.68a6.44,6.44,0,0,0,3.07,5.79,13.08,13.08,0,0,0,6.54,1.84c7.86.45,15.54-.56,21-6.17"/><path class="cls-2" d="M53.93,122.1a7.67,7.67,0,0,1-1.41-1.32L48.91,117a75.46,75.46,0,0,0-13-11.2,34,34,0,0,0-16-5.52c-4.38-.26-7,.61-7.08.42a6.58,6.58,0,0,1,1.84-.58,22.2,22.2,0,0,1,5.27-.47A32.65,32.65,0,0,1,36.36,105a66,66,0,0,1,13,11.52c1.48,1.66,2.63,3,3.41,4A9.14,9.14,0,0,1,53.93,122.1Z"/><path class="cls-2" d="M14.24,52.62a5.61,5.61,0,0,1,.45.69l1.14,2.06L19.93,63c3.44,6.46,8.23,15.36,13.65,25.12S44.05,106.66,47.71,113l4.34,7.51c.45.82.83,1.5,1.15,2.06a3,3,0,0,1,.34.75,3.58,3.58,0,0,1-.5-.66l-1.29-2c-1.11-1.73-2.67-4.24-4.58-7.37-3.81-6.25-8.93-15-14.37-24.74S22.67,69.81,19.37,63.27c-1.66-3.26-3-5.92-3.85-7.77l-1-2.14A2.46,2.46,0,0,1,14.24,52.62Z"/><path class="cls-1" d="M43.78,100.35a35.35,35.35,0,0,1,6.56-31.6c1.81-2.2,4.52-4.35,7.24-3.51s3.75,4.16,3.93,7a30.18,30.18,0,0,1-17.24,28.7"/><path class="cls-2" d="M52.52,77c.15.1-1.42,2.22-3.12,6.06a40.28,40.28,0,0,0-2.35,7,41.6,41.6,0,0,0-.35,17.87,40.52,40.52,0,0,0,2.08,7c1.55,3.9,3,6.08,2.88,6.18a7,7,0,0,1-1.1-1.49,12.55,12.55,0,0,1-1.1-1.87,22,22,0,0,1-1.27-2.58,37,37,0,0,1-2.29-7.13,39.68,39.68,0,0,1,.35-18.23,37.47,37.47,0,0,1,2.58-7,22.83,22.83,0,0,1,1.36-2.53,14.06,14.06,0,0,1,1.17-1.82A6.78,6.78,0,0,1,52.52,77Z"/><path class="cls-2" d="M259.6,664.55a7.35,7.35,0,0,1-.86,1.73l-2.57,4.55a73.57,73.57,0,0,0-7,15.67,34,34,0,0,0-.67,16.89c1,4.27,2.63,6.56,2.46,6.65a6.29,6.29,0,0,1-1.09-1.6,21.57,21.57,0,0,1-2-4.9,32.5,32.5,0,0,1,.43-17.28,65,65,0,0,1,7.27-15.74c1.16-1.9,2.14-3.4,2.83-4.43A8.08,8.08,0,0,1,259.6,664.55Z"/><path class="cls-2" d="M204.6,722.65a2.86,2.86,0,0,1,.53-.63l1.65-1.69,6.13-6.13c5.18-5.17,12.32-12.33,20.09-20.34s14.7-15.38,19.7-20.73l5.9-6.34,1.64-1.7c.38-.38.59-.57.62-.55a3.3,3.3,0,0,1-.49.67L258.86,667c-1.33,1.56-3.28,3.78-5.73,6.51-4.88,5.46-11.75,12.89-19.52,20.92s-15,15.12-20.29,20.17c-2.65,2.53-4.82,4.55-6.33,5.93l-1.76,1.57A2.46,2.46,0,0,1,204.6,722.65Z"/><path class="cls-1" d="M241.74,680.56a35.31,35.31,0,0,1-32.15,2.86c-2.63-1.09-5.46-3.06-5.45-5.91s2.9-4.79,5.57-5.79a30.19,30.19,0,0,1,32.47,8.2"/><path class="cls-2" d="M216.87,679c0-.18,2.53.7,6.7,1.23a41,41,0,0,0,7.35.23,41.67,41.67,0,0,0,17.2-4.84,40.49,40.49,0,0,0,6.15-4c3.28-2.62,4.94-4.66,5.08-4.54a7.74,7.74,0,0,1-1.11,1.48,15.91,15.91,0,0,1-1.47,1.59,23.32,23.32,0,0,1-2.1,2,37.14,37.14,0,0,1-6.16,4.26A40.07,40.07,0,0,1,231,681.31a36.68,36.68,0,0,1-7.48-.43,22.2,22.2,0,0,1-2.81-.57,15.12,15.12,0,0,1-2.09-.6A7.66,7.66,0,0,1,216.87,679Z"/><circle class="cls-2" cx="543.38" cy="511.14" r="17.1"/><path class="cls-2" d="M608.36,476.73a17.1,17.1,0,1,1-17.12-17.08h0A17.11,17.11,0,0,1,608.36,476.73Z"/><path class="cls-2" d="M608.46,549.21c0,10.28-7.63,18.62-17.07,18.63s-17.12-8.3-17.13-18.58,7.63-18.62,17.08-18.63S608.45,538.94,608.46,549.21Z"/><path class="cls-2" d="M586.31,547c-.73,1.08-12.1-5.38-25.4-14.42s-23.49-17.25-22.76-18.32,12.11,5.38,25.41,14.43S587,546,586.31,547Z"/><path class="cls-2" d="M587.68,475.56c.8,1-8,9.16-19.61,18.17s-21.71,15.48-22.5,14.45,8-9.16,19.61-18.17S586.88,474.53,587.68,475.56Z"/><path class="cls-1" d="M492.68,311.69c.25,0,.45,4.6.45,10.27s-.2,10.27-.45,10.27-.44-4.6-.44-10.27S492.44,311.69,492.68,311.69Z"/><path class="cls-1" d="M492.68,270.63c.25,0,.45,4.59.45,10.26s-.2,10.27-.45,10.27-.44-4.6-.44-10.27S492.44,270.63,492.68,270.63Z"/><path class="cls-1" d="M492.68,229.56c.25,0,.45,4.6.45,10.26s-.2,10.27-.45,10.27-.44-4.59-.44-10.27S492.44,229.56,492.68,229.56Z"/><path class="cls-1" d="M492.68,188.49c.25,0,.45,4.6.45,10.27s-.2,10.27-.45,10.27-.44-4.6-.44-10.27S492.44,188.49,492.68,188.49Z"/><path class="cls-1" d="M492.68,147.43c.25,0,.45,4.59.45,10.26s-.2,10.27-.45,10.27-.44-4.6-.44-10.27S492.44,147.43,492.68,147.43Z"/><path class="cls-1" d="M481,118.05c0-.25,4.59-.45,10.26-.45h1.87V118c0,5-.22,8.84-.45,8.84s-.41-3.84-.44-8.84l.44.44h-1.42C485.6,118.49,481,118.29,481,118.05Z"/><path class="cls-1" d="M439.93,118.05c0-.25,4.6-.45,10.27-.45s10.26.2,10.26.45-4.59.44-10.26.44S439.93,118.29,439.93,118.05Z"/><path class="cls-1" d="M422.08,94.79c.24,0,.44,4.6.44,10.27s-.2,10.27-.44,10.27-.48-4.54-.48-10.23S421.83,94.79,422.08,94.79Z"/><path class="cls-1" d="M422.08,61.88c.24,0,.44,2.78.44,6.21s-.2,6.21-.44,6.21-.45-2.78-.45-6.21S421.83,61.88,422.08,61.88Z"/><path class="cls-1" d="M174.41,527.67c0-.25,2.29-.45,5.13-.45s5.13.2,5.13.45-2.3.45-5.13.45S174.41,527.92,174.41,527.67Z"/><path class="cls-1" d="M129.6,527.67c0-.25,5-.45,11.19-.45s11.19.2,11.19.45-5,.45-11.19.45S129.6,527.92,129.6,527.67Z"/><path class="cls-1" d="M84.85,527.67c0-.25,5-.45,11.19-.45s11.2.2,11.2.45-5,.45-11.2.45S84.85,527.92,84.85,527.67Z"/><path class="cls-1" d="M52.21,517.4c.25,0,.44,4.6.44,10.27.1.1-.84-.84-.44-.45h4l3.27.09a11.22,11.22,0,0,1,3,.32,10.45,10.45,0,0,1-3,.31l-3.27.1h-4l-.45-.45C51.76,522,52,517.4,52.21,517.4Z"/><path class="cls-1" d="M52.21,477.59c.25,0,.44,4.46.44,10s-.19,10-.44,10-.45-4.46-.45-10S52,477.59,52.21,477.59Z"/><path class="cls-1" d="M52.21,437.79c.25,0,.44,4.45.44,10s-.19,10-.44,10-.45-4.45-.45-10S52,437.79,52.21,437.79Z"/><path class="cls-1" d="M52.21,407.62c.25,0,.44,2.29.44,5.13s-.19,5.13-.44,5.13-.45-2.3-.45-5.13S52,407.62,52.21,407.62Z"/><path class="cls-3" d="M130,395.79a17.78,17.78,0,0,0-5.73-19.21,17.27,17.27,0,0,0-9.93-3.55,14.32,14.32,0,0,1-12.62-8.6A31.24,31.24,0,0,0,82.14,347c-12.45-3.49-26.87,2-33.79,13-1.91,3-3.46,6.56-6.59,8.31-4,2.23-8.88.72-13.43.43-13.5-.85-26.28,13.56-25.58,27.06Z"/><path class="cls-3" d="M478.6,61.88a17.78,17.78,0,0,0-5.72-19.21,17.41,17.41,0,0,0-9.94-3.56,14.33,14.33,0,0,1-12.62-8.59,31.2,31.2,0,0,0-19.6-17.41c-12.45-3.49-26.88,2-33.8,13-1.91,3-3.46,6.56-6.58,8.31-4,2.22-8.89.72-13.44.43C363.41,34,350.63,48.4,351.33,61.91Z"/><circle class="cls-1" cx="596.56" cy="288.4" r="114.3" transform="translate(-29.2 506.3) rotate(-45)"/><path class="cls-1" d="M455.33,590.79c-2.71,68.75-53.34,125.63-122.12,127a124.56,124.56,0,0,1-127-122.09v0c-1.34-68.79,53.53-132.25,122.12-127C401.53,474.25,457.81,528,455.33,590.79Z"/><circle class="cls-1" cx="139.33" cy="179.65" r="116.55" transform="translate(-86.22 151.14) rotate(-45)"/><path class="cls-1" d="M581.81,315.34c1.81,1.67-42.35,52.5-98.63,113.52S379.8,538,378,536.34s42.34-52.48,98.61-113.55S580,313.67,581.81,315.34Z"/><path class="cls-1" d="M558.39,232.46C557.87,234.87,480,220,384.58,199.2s-172.45-39.56-171.93-42S291,169.69,386.47,190.47,558.91,230.06,558.39,232.46Z"/><path class="cls-1" d="M274.67,514c-1,.63-13.13-16.68-31.46-45.46s-42.8-69.07-68.56-114.31-47.91-86.87-63.29-117.33-24.09-49.7-23-50.25,11.79,17.62,28.57,47.28L182.4,349.79l66.2,115.49C265.53,494.86,275.74,513.34,274.67,514Z"/><path class="cls-4" d="M639.47,130.84c.6,9.76,1.27,12.73,4.89,20.51,2.15,4.62,5.17,8.9,6.36,13.85,1.13,4.71.52,9.67,1.39,14.43,1.42,7.78,6.57,14.24,10.44,21.13s6.48,15.6,2.64,22.5l-39.59-4.67-2.79-49.15Z"/><path class="cls-4" d="M560.76,114.17c-5.12,10.88,2,21.75-3.12,32.62-2.54,5.39-5.1,10.82-6.45,16.62-1.23,5.23-1.47,10.74-3.6,15.66-3.4,7.85-11.11,13.16-14.68,20.93-5.29,11.52.33,25.95,10.45,33.58s23.53,9.55,36.17,8.66c7.66-.54,15.43-2.07,22-6s11.88-10.6,12.71-18.23"/><path class="cls-4" d="M619.47,94.79c25.47,11.29,30.54,53.13,30.66,58.77.16,6.72,3.73,8.11,8.2,11.62s8.79,7.77,10,13.22c1,4.3,0,9,2,13,2.46,4.67,8.27,6.41,12.77,9.3,8.52,5.45,12.73,15.71,13.2,25.62s-2.26,19.66-5,29.22c-1.07,3.79-2.41,7.94-5.84,10-2.66,1.59-6,1.57-9.09,1.5L628,266c-12.34-.27-25-.61-36.41-5.2A45.54,45.54,0,0,1,569.3,242a37,37,0,0,1-4-28.24c2-7.26,6.42-13.82,7.69-21.23,1.58-9.18-6.12-13.11-8.91-22s-5.09-30.26-1.27-38.79"/><path class="cls-5" d="M648.6,325.51l-8-25.5L639.44,339s10.32,26.6,18.18,46.93a119.33,119.33,0,0,1-120.73.84l12.25-44-5.84-49.79-16.16,23.12-34.49-33.33s25.25-46.64,28.38-50.9c20-27.13,54.43-26.48,54.43-26.48l48.78,2.7s27.42-1.53,45.44,20.17c0,0,17.61,26.88,32.07,93.21Z"/><path class="cls-6" d="M673,235.48a6.12,6.12,0,0,1-.71.11c-.46.07-1.17.1-2.07.28a34.64,34.64,0,0,0-7.74,2.23,35.62,35.62,0,0,0-10.63,7,34,34,0,0,0-5.08,6.15,23.52,23.52,0,0,0-3.54,8.15,10,10,0,0,0,.15,4.69,7.42,7.42,0,0,0,2.81,3.9,5,5,0,0,0,4.73.74,5.8,5.8,0,0,0,3.29-3.82,7.21,7.21,0,0,0-.38-5.32,11.67,11.67,0,0,0-3.7-4.31,23.69,23.69,0,0,0-11.3-4.2,34.77,34.77,0,0,0-12.8,1.14,47.32,47.32,0,0,0-12.46,5.2,35.18,35.18,0,0,0-10.31,9.39,12.4,12.4,0,0,0-2.47,6.49,5.81,5.81,0,0,0,.87,3.27,7.9,7.9,0,0,0,2.5,2.45l-.08,0a4.66,4.66,0,0,0,3.48.15,5.11,5.11,0,0,0,2.49-2.61,18.43,18.43,0,0,0,1.44-7.8,22.32,22.32,0,0,0-1.28-7.8,17.66,17.66,0,0,0-4.33-6.42,23.44,23.44,0,0,0-13.75-6.19A37.1,37.1,0,0,0,577.38,250c-4.64,1.42-9.28,3.31-12.25,6.85a7.88,7.88,0,0,0,.18,11.15,7.6,7.6,0,0,0,.61.52,5.26,5.26,0,0,0,2.8,1.22,4.51,4.51,0,0,0,2.88-.69,6.61,6.61,0,0,0,2.73-5.16,15.64,15.64,0,0,0-.66-6c-.31-.94-.72-1.86-1.07-2.77-.19-.45-.34-.92-.56-1.36l-.69-1.27a34.45,34.45,0,0,0-6.62-8.83,41.42,41.42,0,0,0-16.25-9.72A39.3,39.3,0,0,0,534.24,232a37.12,37.12,0,0,0-9,1.66l-2.24.8c-.51.18-.78.25-.78.25s.25-.13.75-.33l2.22-.89a35.39,35.39,0,0,1,9-1.84,39.54,39.54,0,0,1,14.41,1.78,41.71,41.71,0,0,1,16.54,9.75,35.53,35.53,0,0,1,6.79,9l.71,1.3c.22.44.38.91.58,1.38.36.93.78,1.85,1.1,2.83a16.51,16.51,0,0,1,.72,6.24,7.32,7.32,0,0,1-3.06,5.74,5.27,5.27,0,0,1-3.37.81,6.14,6.14,0,0,1-3.21-1.38,9,9,0,0,1-3.29-6.09,7.24,7.24,0,0,1,.51-3.59,11.3,11.3,0,0,1,1.84-3.12c3.18-3.78,8-5.69,12.64-7.15a38,38,0,0,1,15.08-1.71,24.33,24.33,0,0,1,14.3,6.34,18.64,18.64,0,0,1,4.54,6.74,23.19,23.19,0,0,1,1.34,8.12,19.36,19.36,0,0,1-1.53,8.2,6,6,0,0,1-3,3,5.54,5.54,0,0,1-4.14-.14h0a8.77,8.77,0,0,1-2.77-2.72,6.81,6.81,0,0,1-1-3.76,13.14,13.14,0,0,1,2.63-7,35.8,35.8,0,0,1,10.58-9.63,47.77,47.77,0,0,1,12.7-5.27,35.51,35.51,0,0,1,13.1-1.13,24.47,24.47,0,0,1,11.67,4.46,12.41,12.41,0,0,1,3.91,4.6,7.93,7.93,0,0,1,.39,5.84,6.49,6.49,0,0,1-3.71,4.25,5.7,5.7,0,0,1-5.36-.85,8,8,0,0,1-3-4.25,10.7,10.7,0,0,1-.14-5,24.12,24.12,0,0,1,3.67-8.33,34.27,34.27,0,0,1,5.21-6.2,35.37,35.37,0,0,1,10.77-6.93,32.61,32.61,0,0,1,7.83-2.1A26.36,26.36,0,0,1,673,235.48Z"/><path class="cls-6" d="M693.65,291.23a36,36,0,0,0-4.42,2.14,22.5,22.5,0,0,0-8.75,9.8,19.72,19.72,0,0,0-1.41,4.15,8.36,8.36,0,0,0,0,4.6,3.51,3.51,0,0,0,1.24,1.89,2.34,2.34,0,0,0,2.16.23,4.92,4.92,0,0,0,2.61-4.07,9.43,9.43,0,0,0-5.21-9.25,11.9,11.9,0,0,0-11.62,1.1,16.61,16.61,0,0,0-6.58,10.11,7.45,7.45,0,0,0,.46,5.54,3.52,3.52,0,0,0,4.39,1.73,4.43,4.43,0,0,0,2.49-4.07,8.86,8.86,0,0,0-1.47-4.68,13.76,13.76,0,0,0-6.94-5.59,12.89,12.89,0,0,0-7.4-.44,14.15,14.15,0,0,0-5.14,2.39,17.94,17.94,0,0,0-3.42,3.49,1.11,1.11,0,0,1,.14-.29,7,7,0,0,1,.52-.81,12.42,12.42,0,0,1,2.55-2.67,14,14,0,0,1,5.23-2.6,13.24,13.24,0,0,1,7.73.34,14.31,14.31,0,0,1,7.36,5.79,9.62,9.62,0,0,1,1.63,5.08,5.27,5.27,0,0,1-3,4.81,3.81,3.81,0,0,1-3.1,0,5.11,5.11,0,0,1-2.35-2.08,8.31,8.31,0,0,1-.58-6.17A17.49,17.49,0,0,1,667.7,301a12.78,12.78,0,0,1,12.51-1.14A10.24,10.24,0,0,1,685.84,310a5.64,5.64,0,0,1-3.14,4.7,3.09,3.09,0,0,1-2.87-.34,4.16,4.16,0,0,1-1.52-2.3,9,9,0,0,1,0-5,20.47,20.47,0,0,1,1.51-4.27A22.33,22.33,0,0,1,689,293,15,15,0,0,1,693.65,291.23Z"/><path class="cls-6" d="M639.67,315.84a1.26,1.26,0,0,1-.43-.08l-1.22-.3a40.43,40.43,0,0,0-4.74-.8,36.37,36.37,0,0,0-17.3,2.42,32.87,32.87,0,0,0-5.19,2.64,14.59,14.59,0,0,0-4.53,4.21,6.83,6.83,0,0,0-.86,6.19,5.41,5.41,0,0,0,1.91,2.67,4,4,0,0,0,3.17.68,6,6,0,0,0,4.4-5,11.15,11.15,0,0,0-2-7.23,21.84,21.84,0,0,0-13-9.25,21.39,21.39,0,0,0-15.8,2.37,19.56,19.56,0,0,0-5.82,5,9.66,9.66,0,0,0-1.51,3.35,4.68,4.68,0,0,0,.28,3.37,3.31,3.31,0,0,0,2.61,1.75,5,5,0,0,0,3.11-.9,6,6,0,0,0,2.3-5.68,14.56,14.56,0,0,0-2-5.85,21.23,21.23,0,0,0-3.57-4.54,23.46,23.46,0,0,0-8.51-5.09,21.71,21.71,0,0,0-7.45-1.16,25,25,0,0,0-6.38,1,1.32,1.32,0,0,1,.4-.18l1.19-.42a20.31,20.31,0,0,1,4.78-.78,21.6,21.6,0,0,1,7.61,1,23.51,23.51,0,0,1,8.79,5.11,22.07,22.07,0,0,1,3.74,4.65,15.27,15.27,0,0,1,2.13,6.13,8.17,8.17,0,0,1-.39,3.47,5.91,5.91,0,0,1-5.83,4,4.11,4.11,0,0,1-3.26-2.15,5.54,5.54,0,0,1-.38-4,10.67,10.67,0,0,1,1.63-3.64,19.89,19.89,0,0,1,6.08-5.32A22.22,22.22,0,0,1,600.08,311a22.7,22.7,0,0,1,13.52,9.83,11.92,11.92,0,0,1,2.08,7.81,6.83,6.83,0,0,1-5.07,5.73,4.86,4.86,0,0,1-3.81-.84,6.22,6.22,0,0,1-2.18-3.06,7.37,7.37,0,0,1-.33-3.61,8.72,8.72,0,0,1,1.31-3.24,15.59,15.59,0,0,1,4.78-4.4,33.72,33.72,0,0,1,5.32-2.63,35.74,35.74,0,0,1,17.58-2.18A25.13,25.13,0,0,1,639.67,315.84Z"/><path class="cls-7" d="M448.53,173.22c3.55.18,2.53,19.52,5.16,15.43s-1.51-23.73,2.19-23.38c4.82.45,3.39,20.69,3.4,22.41s2.49,1.7,2.4.15c-.13-2.22-.87-25.66,3.87-25.26,2.62.22,1.67,4.91,1.67,4.91s-.92,22,1.32,22.14,3.26-12.81,3.28-17.18,2.08-6.12,4-4.57c1.3,1,1.55,14.44,1.43,18.76s-.65,16.16,4.35,10.44,11-8.34,13.07-7.92,2.18,3.47,0,4.46a27.8,27.8,0,0,0-6.05,4.76,27.41,27.41,0,0,0-3.7,4.95,20.59,20.59,0,0,0-2.64,6.13L489,290.12,494,284l28.19,27.25-14.71,16.93c-10.78,12.4-30.27,13.2-41.22,1-.4-.44-.79-.9-1.16-1.37a22.86,22.86,0,0,1-4.56-12.24l-9.32-104.59h-.08c-.2-11.62-3.36-20.46-3.91-26.45C446.2,173.28,447.21,173.15,448.53,173.22Z"/><path class="cls-7" d="M578.84,216.33c.1-12.17,0-25,0-25s-15.64-2.78-18.65-23.26c-2.87-19.54,2-61.55,2-61.55h0c22.66-8.94,48.17-5.48,64,12.76h0l-2.47,98.78c-.28,11.47-10.37,20.36-22.65,20h0C588.7,237.63,578.74,227.92,578.84,216.33Z"/><path class="cls-4" d="M566.43,138.79a2.62,2.62,0,0,0,2.5,2.67,2.5,2.5,0,0,0,2.72-2.25.22.22,0,0,1,0-.08,2.64,2.64,0,0,0-2.49-2.68,2.53,2.53,0,0,0-2.74,2.29Z"/><path class="cls-4" d="M562.22,135.79c.32.35,2.32-1.1,5.14-1.06s4.87,1.48,5.18,1.14c.16-.16-.17-.78-1.06-1.44a7.19,7.19,0,0,0-4.15-1.33,7.05,7.05,0,0,0-4.1,1.27C562.36,135,562.06,135.66,562.22,135.79Z"/><path class="cls-4" d="M595.31,139.63a2.63,2.63,0,0,0,2.5,2.68,2.52,2.52,0,0,0,2.72-2.29V140a2.62,2.62,0,0,0-2.5-2.67,2.53,2.53,0,0,0-2.73,2.28Z"/><path class="cls-4" d="M591.6,137.18c.33.34,2.33-1.1,5.15-1.06s4.87,1.47,5.18,1.13c.16-.15-.16-.77-1.06-1.44a7.29,7.29,0,0,0-4.15-1.33,7.05,7.05,0,0,0-4.1,1.27C591.79,136.41,591.49,137,591.6,137.18Z"/><path class="cls-4" d="M581.16,158c0-.16-1.73-.49-4.57-.88-.72-.09-1.4-.24-1.52-.73a3.72,3.72,0,0,1,.51-2.13l2.19-5.46c3.05-7.78,5.27-14.18,5-14.3s-3,6.09-6.1,13.87l-2.1,5.49a4.19,4.19,0,0,0-.41,2.82,1.79,1.79,0,0,0,1.14,1.12,4.51,4.51,0,0,0,1.22.19C579.38,158.11,581.15,158.15,581.16,158Z"/><path class="cls-8" d="M578.83,191.35a51.87,51.87,0,0,0,27.46-7s-6.8,14-27.24,11.82Z"/><path class="cls-8" d="M582.28,164.79a5.07,5.07,0,0,1,4.58-1.84,4.68,4.68,0,0,1,3.18,1.76,3,3,0,0,1,.19,3.37,3.4,3.4,0,0,1-3.71.89,10.35,10.35,0,0,1-3.58-2.2,2.79,2.79,0,0,1-.8-.84.91.91,0,0,1,0-1"/><path class="cls-4" d="M589.44,160c-.45,0-.5,3-3.14,5.18s-5.91,1.77-5.93,2.19c0,.2.72.61,2.09.66a7.62,7.62,0,0,0,4.95-1.66,6.61,6.61,0,0,0,2.44-4.34C590,160.79,589.65,160,589.44,160Z"/><path class="cls-4" d="M617.34,104.7c-7.48,10.67-27.29,21.64-41.47,24.19,1.66-2.18,10.37-7.55,12-9.73-6.43,4.8-15.63,11.22-24.16,11.66a5.11,5.11,0,0,1-2.93-.46c-1.14-.69-1.37-2-1.5-3.21a85.08,85.08,0,0,1,.59-18.53,20.51,20.51,0,0,1,7.38-13.22c5.47-4.22,13.29-5.26,20.66-5.44,6.18-.15,12.55.22,18.2,2.45s10.48,6.63,11.3,11.93"/><path class="cls-4" d="M638.79,152.5a116.34,116.34,0,0,0,2-13.67c.61-10.55-2.44-49.49-38.82-46.36l8.75,11.18s-7.18,23.6,8.12,39.88c0,0,.87,9.53,11.53,20.52,0,0,6.17-.19,8.38-11.55"/><path class="cls-7" d="M618.45,141.79a12.2,12.2,0,0,1,6.58.5,8.59,8.59,0,0,1,4.77,4.42,9,9,0,0,1,0,6.54,15.05,15.05,0,0,1-3.79,5.46,10.22,10.22,0,0,1-4,2.58,4.83,4.83,0,0,1-4.55-.76"/><path class="cls-8" d="M619.51,155c-.25.08.68,1.41,2.69.89a4.31,4.31,0,0,0,2.49-2.12,9.81,9.81,0,0,0,1.13-3.62,5.71,5.71,0,0,0-.88-3.86,3.85,3.85,0,0,0-2.85-1.73c-2.06-.07-2.71,1.35-2.48,1.39a4.1,4.1,0,0,1,2.31-.21c1.31.34,2.54,2,2.23,4.24s-1.15,4.3-2.36,4.8S619.65,154.85,619.51,155Z"/><polygon class="cls-4" points="644.1 350.94 644.1 341.6 578.35 341.6 559.04 257.07 460.63 257.88 484.49 350.94 644.1 350.94"/><path class="cls-6" d="M507.26,304.06c1.45,4.48,5.41,7.2,8.84,6.09s5-5.65,3.57-10.13-5.41-7.2-8.84-6.08S505.8,299.58,507.26,304.06Z"/><path class="cls-7" d="M554.53,350.37a61.41,61.41,0,0,1-4.11-9.84A5.76,5.76,0,0,1,550,338a2.11,2.11,0,0,1,1.51-1.85c1.53-.31,2.49,1.55,3.08,3A18.63,18.63,0,0,0,567.53,350l4-.11v-.16l86-7.67L653.43,325,699,321.62l4.15,16.8a34.62,34.62,0,0,1-30.75,38.1,33.17,33.17,0,0,1-5,.17h-98.7c-31.39,2.06-37.3-25.7-37.3-25.7Z"/><rect class="cls-9" x="499.01" y="282.71" width="39.14" height="39.14" rx="11.44"/><rect class="cls-10" x="500.22" y="283.85" width="36.75" height="36.75" rx="10.74"/><rect class="cls-11" x="508.46" y="292.17" width="19.75" height="19.75" rx="5.77"/><polygon class="cls-9" points="518.24 295.86 519.67 300.02 523.89 300.17 520.56 302.89 521.73 307.15 518.24 304.66 514.75 307.15 515.92 302.89 512.59 300.17 516.81 300.02 518.24 295.86"/><path class="cls-12" d="M440.18,626.13l-38.88,24,14.3,34.3a125.08,125.08,0,0,0,30.53-44Z"/><path class="cls-5" d="M450.72,626.92c-5-12-22.27-51.75-36.7-66.59-21.61-22.23-59.65-19.24-59.65-19.24L305,542.85s-18.79,2.06-36.39,11.26l-1.22.38v.25c-13.83,7.51-33.42,25.52-52.07,43l22.32,20.72,24.71,21.93a.66.66,0,0,0,0,.44c.26,1.33-4,27.87-7.8,50.8A124.64,124.64,0,0,0,385.74,705l1.86-21.2c1.69-19.22,3-43,3-43l7.1,18L449.24,632Q450,629.47,450.72,626.92Z"/><path class="cls-4" d="M355.74,539.22a4.53,4.53,0,0,1,.22.88,20.58,20.58,0,0,1,.32,2.59,25.86,25.86,0,0,1-1.27,9.49,26.47,26.47,0,0,1-49.45,2.36,25.65,25.65,0,0,1-2.17-9.33,17.42,17.42,0,0,1,.08-2.6,3.5,3.5,0,0,1,.13-.9c.1,0,0,1.25.14,3.48a27,27,0,0,0,11.2,19.71,26.55,26.55,0,0,0,31.72-1.49,26.88,26.88,0,0,0,7.75-11.4,27.38,27.38,0,0,0,1.53-9.28C355.9,540.46,355.6,539.23,355.74,539.22Z"/><path class="cls-4" d="M402.79,549.94a24.38,24.38,0,0,0-3.5.82,16.94,16.94,0,0,0-7.65,5.81c-2.57,3.24-4.21,8-4.86,13.45-.35,2.72-.49,5.6-.6,8.6s-.17,6.1-.21,9.28a315.48,315.48,0,0,0,1.47,32.53c.39,4.15.8,7.5,1.06,9.82.12,1.08.22,2,.3,2.67a4.92,4.92,0,0,1,0,.94,3.11,3.11,0,0,1-.22-.91c-.13-.7-.29-1.58-.48-2.65-.36-2.31-.87-5.65-1.34-9.8A267,267,0,0,1,385,587.89c0-3.19.1-6.3.23-9.31s.28-5.91.65-8.67c.7-5.5,2.46-10.43,5.18-13.73a16.74,16.74,0,0,1,8-5.75A9.45,9.45,0,0,1,402.79,549.94Z"/><path class="cls-4" d="M285.19,546.73a4.24,4.24,0,0,1-.21,1l-.77,2.7c-.72,2.46-1.7,5.82-2.89,9.92-2.43,8.38-5.63,20-8.75,32.94S267,618,265.32,626.6c-.81,4.19-1.47,7.63-2,10.14-.22,1.12-.41,2-.55,2.76a4.28,4.28,0,0,1-.25,1,3.75,3.75,0,0,1,.07-1q.15-1.1.39-2.79c.34-2.41.91-5.9,1.67-10.2,1.51-8.6,3.87-20.44,7-33.4s6.43-24.57,9-32.91c1.29-4.17,2.38-7.53,3.17-9.84.38-1.08.69-2,.93-2.66A3.7,3.7,0,0,1,285.19,546.73Z"/><path class="cls-4" d="M449.75,618.66a15.12,15.12,0,0,1-2,1.5c-1.32.93-3.27,2.22-5.7,3.79-4.85,3.14-11.65,7.33-19.3,11.72s-14.71,8.12-19.87,10.72c-2.58,1.3-4.68,2.33-6.14,3a14.37,14.37,0,0,1-2.32,1,12.72,12.72,0,0,1,2.16-1.29l6-3.25c5.08-2.75,12.08-6.57,19.72-11s14.48-8.48,19.41-11.48l5.85-3.54A13.52,13.52,0,0,1,449.75,618.66Z"/><path class="cls-4" d="M264.89,626.17c-.16.19-9.87-7.46-21.7-17.1s-21.29-17.6-21.13-17.79,9.87,7.46,21.7,17.1S265.05,626,264.89,626.17Z"/><path class="cls-13" d="M385.49,591.4,404.83,655l-7.23,3.76-7.1-18S383.25,603,385.49,591.4Z"/><g class="cls-14"><path d="M287.29,546.79c-10.43,5.49,15.7,18.72,27.5,18.36l-8.57-22.61S290.79,544.92,287.29,546.79Z"/></g><polygon class="cls-15" points="353.83 639.04 291.92 639.27 295.99 616.48 358.4 615.26 353.83 639.04"/><path class="cls-4" d="M347.9,465.79a4.57,4.57,0,0,0,6.55,5.28c3-1.59,3.29-5.76,2.63-9.08s-1.86-6.85-.52-10c1-2.38,3.31-3.92,5.08-5.81a14.63,14.63,0,0,0,3.81-12.46,12.3,12.3,0,0,0-8.63-9.49c-4.45-1.15-9.89.31-13.25-2.83-2.44-2.28-2.66-6.09-4.56-8.83-3-4.25-9-4.82-14.16-4s-10.31,2.54-15.36,1.39c-4.22-1-7.72-3.82-11.69-5.55a22.67,22.67,0,0,0-28.91,31.7,14.42,14.42,0,0,0,7.17,6.82"/><path class="cls-12" d="M330,569.79h0a25.37,25.37,0,0,1-25.49-24c-.56-11.21-1-22-1-22s-20.82-1.51-22.74-21.86-2.18-67.42-2.18-67.42h0a72.23,72.23,0,0,1,72.51,3.15l2,1.27,2.41,105.32a25.39,25.39,0,0,1-25.24,25.54Z"/><path class="cls-4" d="M318,465.79a3,3,0,1,0,3.79,1.88A3,3,0,0,0,318,465.79Z"/><path class="cls-4" d="M312.3,466.84c.34.33,2.27-1.33,5.11-1.51s5,1.15,5.27.77c.14-.17-.22-.79-1.16-1.41a7,7,0,0,0-8.28.59C312.4,466,312.13,466.69,312.3,466.84Z"/><path class="cls-4" d="M286.93,465.79a3,3,0,1,0,3.79,1.9v0A3,3,0,0,0,286.93,465.79Z"/><path class="cls-4" d="M280.85,466.9c.34.33,2.27-1.33,5.11-1.51s5,1.15,5.27.77c.14-.17-.22-.79-1.16-1.41a7.07,7.07,0,0,0-8.28.59C281,466.09,280.68,466.79,280.85,466.9Z"/><path class="cls-4" d="M302.23,488.91c0-.22-1.78-.43-4.65-.6-.75,0-1.35-.14-1.43-.53a3.87,3.87,0,0,1,.36-2.14c.57-1.91,1.16-3.85,1.77-5.88,2.43-8.37,4.05-15.26,3.62-15.38s-2.75,6.56-5.17,14.94c-.57,2-1.12,4-1.65,5.91a4.56,4.56,0,0,0-.16,3.09,1.88,1.88,0,0,0,1.37,1.06,4.57,4.57,0,0,0,1.28.07C300.45,489.32,302.23,489.13,302.23,488.91Z"/><path class="cls-9" d="M311.68,491.26a69.27,69.27,0,0,1-13.55,5.12s3.73,5,9.48,2.34C313.6,496,311.68,491.26,311.68,491.26Z"/><path class="cls-16" d="M303.37,523.46s13.08,0,26.18-9.71c0,0-5.13,15.17-25.79,15Z"/><path class="cls-12" d="M353.5,459.47a3.09,3.09,0,0,1,2.91-3.14c3.84-.18,10.15,1.21,10.94,11.7,1.14,15-13.5,11.53-13.55,11.1S353.6,465.31,353.5,459.47Z"/><path class="cls-16" d="M357,473.17c.06-.05.27.16.73.33a2.72,2.72,0,0,0,2-.11c1.55-.7,2.71-3.31,2.57-6a8.65,8.65,0,0,0-1-3.68,3,3,0,0,0-2.13-1.86,1.37,1.37,0,0,0-1.5.83c-.17.44,0,.73-.13.76s-.34-.22-.27-.85a1.66,1.66,0,0,1,.52-1,2.09,2.09,0,0,1,1.43-.49,3.77,3.77,0,0,1,2.93,2.12,8.91,8.91,0,0,1,1.23,4.11c.13,3-1.21,6-3.35,6.76a2.83,2.83,0,0,1-2.44-.22C357.07,473.53,357,473.2,357,473.17Z"/><path class="cls-4" d="M322.4,458.48c-.64.83-2.88.44-5.78.32s-5.16-.12-5.69-1,2.21-3.07,5.94-2.76C320.6,455.17,323.11,457.63,322.4,458.48Z"/><path class="cls-4" d="M289.69,458c-.21,1-2.09,1.54-4.21,1.74s-4.06,0-4.46-1,1.39-2.56,4.12-2.8S289.91,457,289.69,458Z"/><path class="cls-4" d="M275.6,440.92s12.34,6,28.42-2.05c10.54-5.26,22.84-7.83,25.55-5.71s3.28,13,13.73,16.16c0,0-.72,20.73,7.54,20s3.1-32.85,3.1-32.85l-20.22-9.88-22.07-4.16-20.79,2.93-16.09,4.4Z"/><path class="cls-17" d="M201.74,476.42c.73,1.17,24.52,83.59,24.52,83.59l-47.2,6.43-21.71-67.25Z"/><polygon class="cls-4" points="226.26 560.01 230.5 557.75 205.8 474.25 201.23 476.68 226.26 560.01"/><path class="cls-4" d="M182,498.3a2,2,0,1,1-3.9.89,2,2,0,0,1,1.5-2.39h0A2,2,0,0,1,182,498.3Z"/><path class="cls-12" d="M217.36,597.63l-31,20.17-5.69-72.16h0l.48-3.61,21-8-6-15.45a13.33,13.33,0,0,0-17.38-7.27c-.34.14-.66.29-1,.45l-6.72,3.42a19,19,0,0,0-9.71,12c-2.38,8.94-4.5,18.6-4.28,17.76h0l-13.29,92.85s-6.31,26.78,12,39.52c13.84,9.63,37.16-.59,49.53-7.59l53.62-32.32Z"/><path class="cls-8" d="M249,218.84l-21-32L192.6,209.13l32.1,49.5S242.34,239.47,249,218.84Z"/><path class="cls-4" d="M117.4,59c1.73-1.91-.62-4.89-3-5.77S109,52,107.81,49.68c-1.41-2.8,1.07-5.92,1.52-9,.48-3.31-1.43-6.46-2-9.76a12.31,12.31,0,0,1,16.16-13.7A16,16,0,0,1,151.9,7.73c3.19-2.43,6.43-4.88,10.14-6.38S170-.6,173.74,1s6.39,5.65,5.68,9.59c2.77-3.3,7.93-3.94,11.83-2.1s6.53,5.75,7.67,9.9c1.58,5.81.2,12.66-4.43,16.5s-12.56,3.49-16-1.46"/><path class="cls-7" d="M140.12,157.37h0A23.75,23.75,0,0,0,164,134.91c.52-10.49,1-20.59,1-20.59s19.48-1.41,21.27-20.45,2-63.07,2-63.07h0a67.58,67.58,0,0,0-67.84,3l-1.8,1.14-2.25,98.54a23.74,23.74,0,0,0,23.6,23.9Z"/><path class="cls-4" d="M151.3,60.09a2.77,2.77,0,0,1,1.77,3.49v0a2.8,2.8,0,1,1-1.81-3.52Z"/><path class="cls-4" d="M156.6,61.08c-.32.31-2.12-1.25-4.78-1.42s-4.65,1.08-4.93.72c-.13-.16.2-.73,1.08-1.32a6.61,6.61,0,0,1,7.75.56C156.54,60.32,156.79,60.94,156.6,61.08Z"/><path class="cls-4" d="M180.36,60.09a2.77,2.77,0,0,1,1.78,3.49v0a2.8,2.8,0,0,1-3.54,1.76A2.78,2.78,0,1,1,180.16,60Z"/><path class="cls-4" d="M186.06,61.14c-.33.31-2.13-1.25-4.78-1.42s-4.66,1.08-4.93.72c-.14-.16.2-.73,1.08-1.32a6.62,6.62,0,0,1,7.75.56C186,60.38,186.21,61,186.06,61.14Z"/><path class="cls-4" d="M166.05,81.72c0-.2,1.66-.4,4.36-.55.7,0,1.25-.13,1.33-.5a3.84,3.84,0,0,0-.33-2l-1.66-5.5c-2.27-7.84-3.79-14.28-3.39-14.39s2.57,6.14,4.84,14c.54,1.91,1,3.74,1.55,5.54a4.38,4.38,0,0,1,.14,2.88,1.81,1.81,0,0,1-1.28,1,4.4,4.4,0,0,1-1.2.06C167.72,82.11,166.05,81.93,166.05,81.72Z"/><path class="cls-9" d="M157.21,83.93a65.34,65.34,0,0,0,12.68,4.79s-3.49,4.65-8.87,2.19C155.43,88.36,157.21,83.93,157.21,83.93Z"/><path class="cls-8" d="M165,114.05A45,45,0,0,1,140.49,105s4.8,14.19,24.14,14Z"/><path class="cls-7" d="M118.08,62.9A2.89,2.89,0,0,0,115.36,60c-3.59-.17-9.49,1.13-10.24,10.94-1.06,14,12.63,10.79,12.69,10.39S118,68.36,118.08,62.9Z"/><path class="cls-8" d="M114.79,75.71c-.05,0-.25.15-.69.31a2.4,2.4,0,0,1-1.84-.1c-1.45-.65-2.53-3.1-2.41-5.63a7.93,7.93,0,0,1,1-3.45,2.86,2.86,0,0,1,2-1.73,1.26,1.26,0,0,1,1.4.77c.16.41,0,.68.12.71s.33-.21.26-.8a1.66,1.66,0,0,0-.49-.92,1.94,1.94,0,0,0-1.34-.46,3.49,3.49,0,0,0-2.74,2,8.18,8.18,0,0,0-1.15,3.84c-.12,2.83,1.14,5.59,3.14,6.32a2.62,2.62,0,0,0,2.28-.2C114.74,76.05,114.84,75.79,114.79,75.71Z"/><path class="cls-4" d="M147.18,53.26c.6.77,2.69.41,5.41.3s4.83-.12,5.32-1-2.06-2.87-5.55-2.58S146.51,52.46,147.18,53.26Z"/><path class="cls-4" d="M177.79,52.79c.2,1,2,1.44,3.94,1.62s3.8,0,4.16-.91-1.29-2.4-3.85-2.62S177.6,51.79,177.79,52.79Z"/><path class="cls-4" d="M191,36.79s-11.55,5.59-26.59-1.92C154.5,30,143,27.54,140.46,29.53s-3.07,12.19-12.86,15.16c0,0,.67,19.39-7.06,18.7s-2.9-30.73-2.9-30.73l19-9.24,20.65-3.91,19.45,2.75,15.06,4.12Z"/><path class="cls-18" d="M61.47,149.08c20.21-20.8,55.8-18.53,55.8-18.53l46.23,1.64a108.65,108.65,0,0,1,34.1,10.54l1.13.35v.24c12.94,7,31.26,23.88,48.72,40.23L226.5,202.93l-23.12,20.53a.72.72,0,0,1,0,.41c-.24,1.24,3.76,26.07,7.29,47.52A116.58,116.58,0,0,1,87.9,283.89l-1.73-19.83c-1.58-18-2.78-40.25-2.78-40.25"/><path class="cls-4" d="M182,135.79a3.78,3.78,0,0,1,.37.85l.87,2.48c.75,2.16,1.77,5.3,3,9.21,2.42,7.8,5.51,18.66,8.45,30.78s5.13,23.21,6.54,31.26c.7,4,1.23,7.28,1.55,9.55.15,1.05.26,1.91.36,2.6a3.59,3.59,0,0,1,.06.92,3.35,3.35,0,0,1-.24-.89l-.52-2.58c-.46-2.36-1.08-5.58-1.83-9.49-1.57-8-3.87-19-6.79-31.16s-5.92-23-8.18-30.81c-1.11-3.83-2-7-2.7-9.29-.29-1-.52-1.85-.71-2.53A3.14,3.14,0,0,1,182,135.79Z"/><path class="cls-4" d="M201,210.15c-.16-.19,8.69-7.65,19.75-16.67s20.17-16.17,20.32-16-8.69,7.65-19.75,16.67S201.14,210.34,201,210.15Z"/><path class="cls-13" d="M88.15,177.62,70.06,237.15l6.73,3.5,6.64-16.86S90.25,188.44,88.15,177.62Z"/><g class="cls-14"><path d="M180,135.86c9.76,5.14-14.69,17.51-25.73,17.18l8-21.16S176.76,134.13,180,135.86Z"/></g><path class="cls-19" d="M114.36,131.88V116.12s30.79,7.92,31.91,26.35c0,0,3.92-20.37,19.78-21.34l2.24,28.66-18.46,16H131.12L116.3,153.05l-1.94-19.89"/><path class="cls-4" d="M153.2,230.79a2.88,2.88,0,0,1,0-.88V227.4c.06-2.17.11-5.33.13-9.22,0-7.79-.19-18.55-1.17-30.38s-2.54-22.5-3.86-30.17c-.66-3.83-1.23-6.94-1.65-9.07-.18-1-.32-1.81-.44-2.47a2.87,2.87,0,0,1-.1-.88,4.12,4.12,0,0,1,.27.84c.17.65.37,1.46.61,2.43.52,2.12,1.18,5.21,1.93,9a295.32,295.32,0,0,1,4.13,30.2,292.38,292.38,0,0,1,.91,30.47c-.1,3.9-.25,7-.41,9.23-.08,1-.15,1.83-.2,2.5A3.91,3.91,0,0,1,153.2,230.79Z"/><path class="cls-4" d="M144.85,137.16a3.66,3.66,0,0,0-1.83.14,4,4,0,0,0-1.7,1.33,13.3,13.3,0,0,0-1.44,2.61,88.4,88.4,0,0,0-5.89,17l-.13.59-.52-.31c-1.84-1.12-3.72-2.32-5.62-3.6a113.2,113.2,0,0,1-10-7.58,12.13,12.13,0,0,1-3.38-4.42,13.67,13.67,0,0,1-1-4.72,27.54,27.54,0,0,1,.66-6.89,11,11,0,0,1,.64-2.44,17.41,17.41,0,0,1-.3,2.5,32.08,32.08,0,0,0-.37,6.78,13.82,13.82,0,0,0,1.09,4.47,11.73,11.73,0,0,0,3.25,4.11,121.29,121.29,0,0,0,9.94,7.45c1.88,1.28,3.75,2.48,5.57,3.59l-.65.27A78.41,78.41,0,0,1,139.36,141a12.81,12.81,0,0,1,1.6-2.65A4,4,0,0,1,142.9,137,2.14,2.14,0,0,1,144.85,137.16Z"/><path class="cls-4" d="M166.05,121.13a13.59,13.59,0,0,1,.25,2.46c.13,1.75.28,4,.47,6.71s.56,6.19,1.13,9.89c.23,1.83.86,3.81.37,6a10.3,10.3,0,0,1-4,5.12c-2.46,1.83-5,3.2-6.79,5.16l-.68.77-.07-1a36.86,36.86,0,0,0-4.58-15.38c-2-3.51-3.61-5.3-3.49-5.39a8.14,8.14,0,0,1,1.19,1.23,32.91,32.91,0,0,1,2.75,3.89,35.36,35.36,0,0,1,5,15.59l-.75-.26c1.87-2.12,4.53-3.53,6.89-5.3a9.61,9.61,0,0,0,3.71-4.63c.45-1.84-.11-3.81-.33-5.68-.53-3.73-.81-7.12-1-10s-.18-5.15-.18-6.74A12.44,12.44,0,0,1,166.05,121.13Z"/><path class="cls-4" d="M265.16,125.08c-1.26,1.48-46.56,62.09-46.56,62.09l6.39,3.61,46.51-59.84Z"/><path class="cls-7" d="M83.06,173s47.68,68.65,50.56,70c5.66,2.65,70.89-53.73,77.12-59.12.85-1.14,2.62-3.56,6.1-8.37,0,0,5.14-23.55,10.64-21.74s-3,12,.57,20.91,20-12.39,20.61-14.31l4.23-5.52s4.43,12.56,4.13,17.81c-1,16.8-16.86,36.79-16.86,36.79s-71.4,88.44-120.31,91.18c-14.08.8-39.11-39.17-55.85-69.14a41,41,0,0,1,11.69-53.11Z"/><path class="cls-8" d="M249,175.65c-.13-.09,1.42-2.77,3.11-6.2s2.89-6.28,3-6.23a29.88,29.88,0,0,1-2.5,6.47A29.59,29.59,0,0,1,249,175.65Z"/><path class="cls-5" d="M75,139.5S23.8,157.7,61.85,243.79l59.09-35.66L112.54,188Z"/><path class="cls-4" d="M71.06,141a1.41,1.41,0,0,1,.41,0h1.19a22,22,0,0,1,4.56.6,26,26,0,0,1,6.69,2.85,36.44,36.44,0,0,1,7.44,6.12c5,5.17,9.58,12.4,13.87,20.76s8.36,17.9,12.51,27.91l3.62,8.76.15.37-.35.19c-17.09,9.32-32,18.06-42.49,24.61-5.26,3.26-9.45,6-12.32,7.82L63,243.12a6.43,6.43,0,0,1-1.18.7,8.94,8.94,0,0,1,1.09-.83c.73-.53,1.8-1.31,3.22-2.28,2.82-2,7-4.72,12.19-8.06,10.44-6.68,25.28-15.52,42.38-24.88l-.2.56c-1.16-2.8-2.38-5.76-3.63-8.75-4.14-10-8.14-19.53-12.41-27.88S95.72,156.15,90.89,151a36.59,36.59,0,0,0-7.24-6.13,26,26,0,0,0-6.52-2.93A34.67,34.67,0,0,0,71.06,141Z"/></g></g></svg>